<?xml version="1.0" encoding="utf-8"?>
<!-- Generator: Adobe Illustrator 24.0.2, SVG Export Plug-In . SVG Version: 6.00 Build 0)  -->
<svg version="1.1" id="Camada_1" xmlns="http://www.w3.org/2000/svg" xmlns:xlink="http://www.w3.org/1999/xlink" x="0px" y="0px"
	 viewBox="0 0 595 757.6" style="enable-background:new 0 0 595 757.6;" xml:space="preserve">
<style type="text/css">
	.st0{fill:#DEECF9;}
</style>
<g>
	<path class="st0" d="M542.5,27.5h-490c-15,0-27.1,12.9-27.1,28.9v543.2c84.5,36.2,176.7,56.1,273.3,56.1h0
		c95.7,0,187.2-19.6,271-55.1V56.4C569.7,40.4,557.5,27.5,542.5,27.5z"/>
	<path class="st0" d="M542.5,27.5h-490c-15,0-27.1,12.9-27.1,28.9v543.2c84.5,36.2,176.7,56.1,273.3,56.1h0
		c95.7,0,187.2-19.6,271-55.1V56.4C569.7,40.4,557.5,27.5,542.5,27.5z"/>
</g>
</svg>
