<svg xmlns="http://www.w3.org/2000/svg" xmlns:xlink="http://www.w3.org/1999/xlink" viewBox="0 0 345.47 412.85"><defs><linearGradient id="a" x1="963.38" y1="143.36" x2="942.31" y2="122.29" gradientTransform="translate(304.88 1094.18) rotate(-99.8)" gradientUnits="userSpaceOnUse"><stop offset="0" stop-color="#e74500"/><stop offset="0.08" stop-color="#ed6504"/><stop offset="0.19" stop-color="#f58e09"/><stop offset="0.28" stop-color="#faa80d"/><stop offset="0.34" stop-color="#fcb10e"/><stop offset="0.7" stop-color="#ffc700"/><stop offset="0.75" stop-color="#f8c600"/><stop offset="0.82" stop-color="#e3c300"/><stop offset="0.9" stop-color="#c2be00"/><stop offset="0.99" stop-color="#94b700"/><stop offset="1" stop-color="#91b700"/></linearGradient><clipPath id="c" transform="translate(-3)"><path d="M282.55,120.84c-2.28-2.11-4.92-2.93-8.93-2.15s-6.35,4.14-8.91,8.53c-3,5.08-6.51,11.64-2.13,15.79s12.55,2.53,18.23-2.77S287.75,125.65,282.55,120.84Z" style="fill:url(#a)"/></clipPath></defs><title>pessoas</title><g style="isolation:isolate"><path d="M263.4,195.6h37.14s-4.72,48.21-3.74,89.74,1.12,110.84,1.12,110.84h-15.5s-15.16-49.6-19-97.75S263.4,195.6,263.4,195.6Z" transform="translate(-3)" style="fill:#021323"/><path d="M297.92,396.18c0,2.86,4.94,16.57-2.48,16.57s-31.14.62-34.34-1.23,21.95-6.58,21.32-15.34Z" transform="translate(-3)" style="fill:#021323"/><path d="M326.29,195.6s5.37,48.21,9.62,89.74S346,396.18,346,396.18h-15.5s-19.33-49.6-27-97.75S291,195.6,291,195.6Z" transform="translate(-3)" style="fill:#021323"/><path d="M346,396.18s6.93,16.57-2.48,16.57H326.88c-9.66,0,5.71-7.3,3.63-16.57Z" transform="translate(-3)" style="fill:#021323"/><path d="M277.4,115.73c-8.94-1.2-12.12,9.35-23.12,57,0,0-15.69-15.18-34.06-32.22l-6.07,8.09s30.12,50.78,46.15,46.76,20.59-26.24,25.08-46.06S282.79,116.45,277.4,115.73Z" transform="translate(-3)" style="fill:#ffc8b7"/><path d="M279.76,114c-11.06-1.51-20.55,17.59-29.28,48.81,0,0,17.53,10.22,33.78,12.66C284.26,175.42,303.34,117.18,279.76,114Z" transform="translate(-3)" style="fill:#f9c416"/><polygon points="301.6 81.39 306.37 110.72 287.8 118.22 286.05 82.32 301.6 81.39" style="fill:#ffc8b7"/><path d="M271.11,118.12c7.77-8.37,52.57-11.8,62,.55s-6.78,76.93-6.78,76.93-37.24,11.6-62.89,0C263.4,195.6,263.35,126.5,271.11,118.12Z" transform="translate(-3)" style="fill:#f9c416"/><path d="M285.68,49.6c44.69-4.9,27.64,55.55,1.07,50.87S264.21,52,285.68,49.6Z" transform="translate(-3)" style="fill:#ffc8b7"/><path d="M289.51,64.69A9.84,9.84,0,0,0,298.82,73l7.7,20.26s4.1-1.84,6.75-11.13,0-15,0-15Z" transform="translate(-3)" style="fill:#1e5ade"/><path d="M299.53,76.2s2.6-12.8,6.72-6.49-5,12.38-5,12.38Z" transform="translate(-3)" style="fill:#ffc8b7"/><path d="M309.37,110.72S296.82,125.16,291,126.5s-.58-15.78-.58-15.78l8.39-4.69Z" transform="translate(-3)" style="fill:#ffc8b7"/><path d="M313.27,67.12l-47.53-4.86S272,41.56,279.17,41,313.79,38.74,313.27,67.12Z" transform="translate(-3)" style="fill:#f73434"/><path d="M297,65.45s-23.81,5.89-33.56,5.89a21.36,21.36,0,0,1-15.12-5.89L268.19,56Z" transform="translate(-3)" style="fill:#021323"/><path d="M244.55,118.59c3.34-.48,3,1,4.89,1.07s1.79-1.51,5-.44,5.62,4.42,4.38,9.91-6.45,7.15-10.42,6.89-8.91-2.57-9.44-8.17S241.22,119.06,244.55,118.59Z" transform="translate(-3)" style="fill:#f23311"/><path d="M248.55,119.54l0,.06.05.05.09.08.09.08.09.07a1.89,1.89,0,0,0,1.18.3,2.17,2.17,0,0,0,.73-.18l.16-.08.16-.1.29-.23a3.37,3.37,0,0,0,.48-.52l.19-.27.18-.27c.11-.18.22-.35.34-.51a3.11,3.11,0,0,1,.35-.43l.2-.18.21-.15a2.84,2.84,0,0,1,.43-.21,2.37,2.37,0,0,1,.72-.16h.29l-.07,0-.21,0a2.8,2.8,0,0,0-.79,0,3,3,0,0,0-.53.12,2,2,0,0,0-.28.11l-.28.14a4.11,4.11,0,0,0-.54.39l-.47.44-.23.21-.22.19a2.41,2.41,0,0,1-.43.28.88.88,0,0,1-.2.09l-.09,0h-.09a.78.78,0,0,1-.27,0,.51.51,0,0,1-.18-.08s-.06-.06-.06-.08h0s0,0,0,0h0l0-.07Z" transform="translate(-3)" style="fill:#5caf00"/><path d="M248.88,118.49l0,.06h0a.15.15,0,0,1-.07.07.47.47,0,0,1-.19.06.83.83,0,0,1-.27,0l-.06,0h0l-.09,0-.19-.11a2.83,2.83,0,0,1-.38-.34,2,2,0,0,1-.2-.21l-.2-.24-.41-.49a3.56,3.56,0,0,0-.49-.46,1.7,1.7,0,0,0-.26-.18,1.3,1.3,0,0,0-.26-.14,2.48,2.48,0,0,0-.51-.19,2.65,2.65,0,0,0-.78-.08l-.22,0h0l.21,0a2.85,2.85,0,0,1,.7.25,2.35,2.35,0,0,1,.4.27l.19.17.17.2a3.15,3.15,0,0,1,.3.47l.27.55.14.29c0,.1.1.2.16.3a3,3,0,0,0,.66.84l.15.12.15.1a2,2,0,0,0,1.9.13l.11-.06.1-.07.09-.07.05,0,.06,0Z" transform="translate(-3)" style="fill:#5caf00"/><path d="M248.17,119.42l.05,0,.11,0,.08,0,.08,0a1.83,1.83,0,0,0,.93.06,1.88,1.88,0,0,0,.57-.21,2.34,2.34,0,0,0,.27-.2l.11-.11.11-.12a2.18,2.18,0,0,0,.29-.54,4,4,0,0,0,.13-.55,4.49,4.49,0,0,0,0-.51l0-.45a2.63,2.63,0,0,1,0-.41,1.69,1.69,0,0,1,.09-.34,1.22,1.22,0,0,1,.28-.47,1.13,1.13,0,0,1,.11-.11l0,0-.06,0-.15.06a1.55,1.55,0,0,0-.45.4,2.36,2.36,0,0,0-.23.35,2.65,2.65,0,0,0-.18.42l-.17.44a2.83,2.83,0,0,1-.17.4,1.2,1.2,0,0,1-.43.53l-.06,0h0l0,0-.09,0a.47.47,0,0,1-.17,0,.45.45,0,0,1-.19-.11v0h0l0,0,0,0Z" transform="translate(-3)" style="fill:#5caf00"/><path d="M249.64,118.84a.75.75,0,0,1-.52,0s-.61-3.71.69-5.35c.15-.19,1.07.16.9.4a5.17,5.17,0,0,0-.88,2.3A15.29,15.29,0,0,0,249.64,118.84Z" transform="translate(-3)" style="fill:#458300"/><path d="M249.91,113.61c0,.07.1.18.29.25s.36.07.38,0-.1-.18-.29-.25S249.93,113.54,249.91,113.61Z" transform="translate(-3)" style="fill:#2e5800"/><path d="M247.79,118.85c.09,0,.17-.24.13-.52a3.46,3.46,0,0,0-.35-.92,3.56,3.56,0,0,1-.38-1.14,1.34,1.34,0,0,1,.33-1.11,1.13,1.13,0,0,0,.07,1,3.1,3.1,0,0,0,.65.77,4.52,4.52,0,0,1,.82.93,2,2,0,0,1,.25,1.61Z" transform="translate(-3)" style="fill:#5caf00"/><path d="M250.26,92.83a.38.38,0,0,1,.18-.15,1.89,1.89,0,0,1,.27-.83.3.3,0,0,1,.4,0l.2.2a1.83,1.83,0,0,1,.49-.78.39.39,0,0,1,.69.18A8.29,8.29,0,0,1,252,95a32,32,0,0,0-1.1,5.82c-.19,2,.06,3.88.06,5.83,0,.23.07.47.09.7.07-.38.14-.77.2-1.15a0,0,0,0,1,0,0,22.31,22.31,0,0,1,.34-2.68c.11-1.18,0-2.37.13-3.55.07-.75.16-2.37,1.14-2.52a.37.37,0,0,1,.32.14,1.75,1.75,0,0,1,.22,1h0a.36.36,0,0,1,.38.13c.79,1.18-1,3.24-1.2,4.4s-.19,2.48-.51,3.69c-.07.28-.15.55-.24.82.38-.74.79-1.48,1.19-2.24a17.85,17.85,0,0,0,2.07-7.67c0-.68.1-1.38.17-2.07a13.45,13.45,0,0,1,.18-4.49c.12-.69.21-2.13,1.16-2.09h.05a1.64,1.64,0,0,1,.63-1.61.29.29,0,0,1,.4.06l0,0a1.69,1.69,0,0,1,1-1.08.39.39,0,0,1,.53.32c.18,1.3-.69,2.53-1.34,3.59a15.31,15.31,0,0,0-2.06,7.43,17.41,17.41,0,0,1-1.68,7c-.44.86-.93,1.7-1.43,2.53,1.05-1.37,2.16-2.7,3.11-4.12A13.55,13.55,0,0,0,257.91,98a8.89,8.89,0,0,1,1-3.15.35.35,0,0,1,.53,0,3.73,3.73,0,0,1,.26.54,2.29,2.29,0,0,1,.43-.32c.22-.12.42.13.41.32a3.28,3.28,0,0,1-.3,1.25c.23-.06.38.21.33.4-.76,2.76-2.82,4.79-4.44,7-.28.4-.58.8-.88,1.19-.95,1.32-1.94,2.62-2.9,3.95a16.28,16.28,0,0,0-1.67,3.24c0,.12-.25.07-.22-.06s.15-.52.23-.76c-.07.11-.15.21-.22.33a.26.26,0,0,1-.36.07l0,.09h0l-.18.7c0,.09-.16.1-.17,0a22.36,22.36,0,0,1,.47-4.67c-.12-2.53-1-5-1-7.62S249.14,95.11,250.26,92.83Z" transform="translate(-3)" style="fill:#538235"/><path d="M250.76,111.68c4.38,1.52,1.65,6.25.47,8.89s-3.61,7.67-4.3,10-3.22,8.57-4.61,8.41-2.41-2.42-.5-10.08,2.54-11.51,3.28-14.43S247.92,110.7,250.76,111.68Z" transform="translate(-3)" style="fill:#ff6a00"/><path d="M245.35,127a5.79,5.79,0,0,0,3.66-1.6c-.26.56-.5,1.11-.73,1.65A3.32,3.32,0,0,1,245.35,127Z" transform="translate(-3)" style="fill:#ff6500"/><path d="M252.69,117.18a21.15,21.15,0,0,1-.87,2.11,3.73,3.73,0,0,1-3,.4A8.25,8.25,0,0,0,252.69,117.18Z" transform="translate(-3)" style="fill:#ff4c00"/><path d="M250.21,111.51a3.48,3.48,0,0,0-2.84,2.06c-2.07,4.19-2.18,8.72-3,13.23-.53,2.94-3.11,8.17-.52,10.73-.56.88-1.1,1.45-1.53,1.4-1.39-.16-2.41-2.42-.5-10.08s2.54-11.51,3.28-14.43C245.8,111.71,247.65,110.82,250.21,111.51Z" transform="translate(-3)" style="fill:#ff6500"/><path d="M226.9,113.41c-.16-2.58-2.37-5.18-2-7.86.24-1.66,1.43-3.26,1.37-4.89,0-1.27-.79-2.79-.55-4.09.27-1.48,2-2.14,2.93-3.11a8.35,8.35,0,0,0,1.66-3.83A8.54,8.54,0,0,1,232,85.85a5.55,5.55,0,0,1,5.1-1.67,6.18,6.18,0,0,1,4.27,3.13,8.6,8.6,0,0,1,.73,3.57,5.62,5.62,0,0,0,1.07,3.4c.88,1,2.43,1.35,2.72,2.64.23,1-.6,2.11-.5,3.14.12,1.28,1.45,2.42,1.88,3.5.69,1.77-.79,4.2-.09,6.07.48,1.29,2,2.57,1.78,4-.11.64-.73,1.23-.84,1.87-.28,1.72,1.68,3.35,1.48,5-.19,1.44-2.12,2.26-2.74,3.62a6.33,6.33,0,0,0-.13,2.73,10,10,0,0,1-1.85,6.65c-2.57.29-4.9-1.15-6.58-2.78a10.77,10.77,0,0,0-2.25-2.1c-1.45-.69-3.52-.07-4.67-1.29-1.54-1.62-.82-4.55-2.26-6.37-.53-.67-1.3-1-1.8-1.7C226.2,117.64,227,115.14,226.9,113.41Z" transform="translate(-3)" style="fill:#7fb64d"/><path d="M251.39,142.19s-.51-.69-1.34-1.92c-.43-.61-.93-1.36-1.48-2.24s-1.17-1.86-1.8-3-1.33-2.37-2-3.58-1.35-2.71-1.95-4.1-1.23-3-1.8-4.48-1.08-3.14-1.57-4.73-.88-3.21-1.26-4.83c-.18-.8-.35-1.6-.5-2.39s-.3-1.58-.43-2.35c-.24-1.49-.44-3-.6-4.5-.14-1.34-.25-2.7-.32-4.06s-.1-2.42-.11-3.45,0-1.94,0-2.68c0-1.49.08-2.34.08-2.34a.21.21,0,0,0-.18-.23c-.1,0-.18.08-.2.2s-.12.85-.26,2.34c-.07.75-.14,1.65-.19,2.69s-.09,2.22-.08,3.5,0,2.76.13,4.13c.09,1.53.26,3.06.45,4.58.1.8.22,1.6.35,2.41s.29,1.63.46,2.45c.35,1.66.75,3.3,1.19,4.95s1,3.24,1.54,4.85,1.19,3.07,1.84,4.59,1.29,2.8,2,4.17,1.32,2.45,2,3.63,1.31,2.11,1.9,3,1.13,1.63,1.57,2.24c.91,1.22,1.46,1.89,1.46,1.89a.71.71,0,0,0,1,.22A.72.72,0,0,0,251.39,142.19Z" transform="translate(-3)" style="fill:#b1cc66"/><path d="M238,112.88s0-.23-.13-.64c0-.1,0-.21-.08-.34s-.08-.27-.12-.43-.1-.31-.15-.48-.12-.33-.18-.51l-.2-.55q-.12-.27-.24-.57c-.16-.4-.36-.79-.56-1.21-.1-.21-.21-.41-.32-.62s-.22-.42-.34-.63c-.24-.41-.48-.84-.74-1.24s-.53-.8-.79-1.2-.55-.75-.83-1.1l-.4-.51c-.14-.16-.28-.31-.41-.47s-.54-.57-.78-.81-.49-.45-.7-.63l-.57-.42-.53-.31c-.08,0-.17,0-.2.12a.24.24,0,0,0,0,.23v0l.42.45.45.54c.09.11.17.23.27.36l.29.38.31.44c.11.15.21.31.32.47s.22.34.34.51l.34.53c.12.18.23.37.35.56s.24.37.35.57c.23.39.47.78.7,1.18s.45.8.66,1.2c.12.19.21.4.32.59s.21.38.3.58c.18.39.38.75.53,1.11l.24.52c.08.17.14.33.21.49s.13.3.19.44l.15.4c0,.12.09.24.14.35s.07.23.11.32l.21.63h0a.56.56,0,0,0,.72.39A.63.63,0,0,0,238,112.88Z" transform="translate(-3)" style="fill:#b1cc66"/><path d="M232.47,102.58v-.09c0-.06,0-.15,0-.25s0-.24,0-.39,0-.33,0-.51c0-.37,0-.81,0-1.27,0-.23,0-.47,0-.72s-.05-.49-.08-.73-.07-.49-.11-.73-.09-.48-.14-.7,0-.23-.07-.34l-.09-.31c-.06-.2-.11-.39-.17-.56l-.17-.47a2.84,2.84,0,0,0-.15-.34l-.13-.3a0,0,0,0,0,0,0,.07.07,0,0,0,0,.06h0s0,.11.1.31.07.22.12.36.08.3.13.47.08.37.13.57.09.41.13.63.07.46.11.69.05.48.09.72,0,.48.07.72,0,.47,0,.7,0,.45,0,.66,0,.4,0,.58c0,.37,0,.67,0,.88v.34h0a.16.16,0,0,0,.11.16A.14.14,0,0,0,232.47,102.58Z" transform="translate(-3)" style="fill:#b1cc66"/><path d="M236,99.3l-.19-.18-.21-.2-.26-.28-.29-.35c-.1-.12-.2-.27-.3-.41l-.31-.47c-.1-.16-.19-.34-.28-.52s-.18-.35-.25-.54-.15-.36-.22-.54l-.09-.27c0-.09-.06-.18-.08-.26s-.1-.33-.13-.49a4,4,0,0,1-.09-.42,3,3,0,0,1-.06-.33l-.05-.29h0s0,0,0,0,0,0,0,0,0,.11,0,.3,0,.21,0,.35,0,.13,0,.21l0,.23c0,.16.06.33.1.51s.1.37.15.57.13.38.2.58.16.38.25.57a5.61,5.61,0,0,0,.29.54c.1.18.21.34.31.5a5.13,5.13,0,0,0,.33.42,3.84,3.84,0,0,0,.31.36,2.46,2.46,0,0,0,.28.28,2.6,2.6,0,0,0,.22.19l.2.16a.11.11,0,0,0,.17,0A.17.17,0,0,0,236,99.3Z" transform="translate(-3)" style="fill:#b1cc66"/><path d="M234.39,106.46l-.29.18c-.1,0-.2.1-.34.15l-.21.07-.24.07-.27,0-.28,0a1.6,1.6,0,0,1-.31,0l-.32,0a2.65,2.65,0,0,1-.66-.16c-.12,0-.22-.09-.34-.13l-.32-.18-.32-.22a3.36,3.36,0,0,1-.29-.24,4.22,4.22,0,0,1-.53-.59l-.45-.64a6.82,6.82,0,0,0-.43-.56,3,3,0,0,0-.43-.39,1.54,1.54,0,0,0-.37-.18,1.14,1.14,0,0,0-.26-.05h-.08a0,0,0,0,0,0,0,0,0,0,0,0,0,0h.08a1,1,0,0,1,.23.07,2,2,0,0,1,.72.61,5.63,5.63,0,0,1,.39.57c.13.21.27.44.43.67a4.85,4.85,0,0,0,.55.65,3.92,3.92,0,0,0,.31.28,4.15,4.15,0,0,0,.34.24,2.37,2.37,0,0,0,.35.19,2.63,2.63,0,0,0,.35.15,3.16,3.16,0,0,0,.72.18,2,2,0,0,0,.34,0h.33a1.65,1.65,0,0,0,.31,0,2.74,2.74,0,0,0,.28,0l.26-.08.22-.1a3,3,0,0,0,.36-.18l.29-.2h0a.18.18,0,0,0,0-.2A.13.13,0,0,0,234.39,106.46Z" transform="translate(-3)" style="fill:#b1cc66"/><path d="M242.08,126.09s-.11-.27-.32-.74a1.42,1.42,0,0,0-.08-.18c0-.07-.07-.14-.11-.22s-.16-.3-.25-.48l-.14-.26L241,124c-.1-.18-.22-.37-.33-.56s-.25-.39-.39-.6-.26-.42-.42-.62c-.3-.42-.61-.87-1-1.3s-.72-.87-1.09-1.33l-.58-.64-.3-.33-.3-.32-.61-.63-.63-.6c-.2-.2-.41-.38-.62-.57s-.41-.37-.62-.53c-.42-.34-.82-.68-1.22-1q-.28-.23-.57-.42l-.55-.35c-.17-.11-.34-.23-.5-.32l-.47-.25-.41-.22c-.13-.07-.25-.11-.35-.16-.43-.19-.68-.28-.68-.28s-.17,0-.19.14a.27.27,0,0,0,.09.23h0s.22.18.61.46l.31.24.37.3.42.33c.14.11.29.25.45.39l.49.42.51.47c.18.16.36.32.54.5s.36.36.55.53.37.38.56.57.38.38.57.59l.57.6.56.63.29.3a4.15,4.15,0,0,0,.27.32c.18.22.37.42.54.64.35.43.71.83,1,1.25l.25.31.12.15.11.15.45.59.21.29c.06.1.13.19.19.28s.27.36.38.54l.33.5.16.23a2.39,2.39,0,0,0,.13.21q.12.21.24.39l.11.18.09.17c.25.46.4.71.4.71h0a.54.54,0,0,0,.77.26A.61.61,0,0,0,242.08,126.09Z" transform="translate(-3)" style="fill:#b1cc66"/><path d="M234.7,117v-.09a1.61,1.61,0,0,0,0-.25c0-.1,0-.23,0-.38s-.05-.32-.09-.5c-.07-.36-.16-.78-.27-1.23-.06-.23-.13-.46-.19-.69l-.21-.71c-.08-.23-.16-.46-.25-.69s-.17-.45-.27-.65-.09-.21-.13-.31l-.14-.29c-.1-.19-.18-.37-.28-.52s-.17-.3-.25-.42l-.21-.31-.18-.27s0,0,0,0,0,0,0,.06h0l.16.29.18.32c.07.13.14.28.22.44s.15.34.23.53.17.39.25.59.16.43.24.66.14.45.22.68.14.46.21.69.12.45.17.67.11.44.15.64.09.39.13.57l.17.86c0,.1,0,.19,0,.24V117h0a.13.13,0,0,0,.14.13C234.67,117.16,234.71,117.09,234.7,117Z" transform="translate(-3)" style="fill:#b1cc66"/><path d="M237,119.68l-.06.07a1.55,1.55,0,0,1-.15.18,2.94,2.94,0,0,1-.25.26c-.1.1-.22.2-.35.31s-.28.21-.45.31a3.76,3.76,0,0,1-.53.27,4,4,0,0,1-.61.2,4.72,4.72,0,0,1-.64.1,3.84,3.84,0,0,1-.68,0,5.13,5.13,0,0,1-.66-.13A4,4,0,0,1,232,121a4.53,4.53,0,0,1-.54-.27l-.44-.28-.33-.26-.21-.18-.08-.07h0a0,0,0,0,0-.05,0s0,.05,0,.06l.06.08.2.21.33.3.21.16.23.17c.17.11.36.23.55.33a4.51,4.51,0,0,0,.64.26,4.09,4.09,0,0,0,.69.17,4.35,4.35,0,0,0,.71,0,3.19,3.19,0,0,0,.7-.1,4.34,4.34,0,0,0,.64-.2,4.24,4.24,0,0,0,.56-.3,4.78,4.78,0,0,0,.47-.34,4,4,0,0,0,.36-.34,2.82,2.82,0,0,0,.25-.3c.08-.08.12-.15.16-.19l0-.08a.17.17,0,0,0,0-.2C237.06,119.63,237,119.63,237,119.68Z" transform="translate(-3)" style="fill:#b1cc66"/><path d="M233.21,111.75l-.18.06a.65.65,0,0,1-.21.06l-.13,0-.15,0a1.66,1.66,0,0,1-.32,0,2.44,2.44,0,0,1-.38,0,1.94,1.94,0,0,1-.4-.06,3.59,3.59,0,0,1-.41-.11c-.13-.06-.27-.1-.4-.17s-.26-.14-.38-.21l-.17-.12a1,1,0,0,1-.17-.12,2.48,2.48,0,0,1-.3-.25,2.72,2.72,0,0,1-.24-.24,1.37,1.37,0,0,1-.17-.19l-.15-.19h0s0,0,0,0a.06.06,0,0,0,0,.06l.13.22c0,.07.1.14.16.23l.11.14.12.15.29.3c.11.11.23.19.35.29a3.34,3.34,0,0,0,.4.25c.14.08.29.14.43.21s.29.1.44.13a3.49,3.49,0,0,0,.43.07h.4a2,2,0,0,0,.36,0l.15,0,.14,0a.79.79,0,0,0,.22-.08l.18-.08a.15.15,0,0,0,.06-.19A.14.14,0,0,0,233.21,111.75Z" transform="translate(-3)" style="fill:#b1cc66"/><path d="M234.16,121.52l0-.21a1.83,1.83,0,0,0-.07-.23,2.33,2.33,0,0,0-.11-.31c0-.11-.1-.23-.15-.35l-.2-.37c-.08-.13-.15-.26-.24-.38l-.28-.36a3,3,0,0,0-.3-.32,2.7,2.7,0,0,0-.31-.28,2.86,2.86,0,0,0-.3-.22,3.09,3.09,0,0,0-.29-.17l-.12-.06-.12-.05-.19-.07-.17,0a0,0,0,0,0,0,0,.05.05,0,0,0,0,.05h0l.16.09.17.1.23.15.25.2.27.24.28.28.27.32c.08.11.17.22.24.33l.22.35c.06.12.13.23.19.34s.1.21.14.32a2.86,2.86,0,0,1,.12.27l.08.21.06.2c0,.08.1.13.16.11A.14.14,0,0,0,234.16,121.52Z" transform="translate(-3)" style="fill:#b1cc66"/><path d="M243.68,131.3l-.15-.31-.08-.17-.11-.2-.12-.23-.15-.23a5,5,0,0,0-.36-.53l-.2-.27-.23-.28c-.16-.18-.32-.37-.5-.54a6.76,6.76,0,0,0-.55-.52c-.19-.16-.38-.32-.58-.46a6.82,6.82,0,0,0-.59-.4c-.2-.11-.38-.23-.57-.31l-.27-.13-.25-.1-.23-.08-.21-.07a2.1,2.1,0,0,0-.35-.08l-.3-.06s-.09,0-.09.1a.14.14,0,0,0,.07.11h0l.28.15.31.18.4.24a5.31,5.31,0,0,1,.46.31l.25.17.25.19.51.42c.18.14.34.31.51.45l.49.5c.16.16.3.33.45.5s.27.32.39.49l.18.23c.06.07.11.15.16.22l.15.21c0,.06.08.13.12.18l.11.17a1.3,1.3,0,0,1,.1.15l.18.29a.32.32,0,0,0,.44.13A.34.34,0,0,0,243.68,131.3Z" transform="translate(-3)" style="fill:#b1cc66"/><path d="M238.07,113s0-.23,0-.65c0-.1,0-.22,0-.34v-.78c0-.14,0-.31,0-.47l0-.52c0-.18,0-.36.07-.55,0-.38.11-.77.18-1.18,0-.2.08-.4.13-.61s.09-.42.15-.62c.11-.42.23-.84.37-1.25s.29-.81.44-1.21c.08-.2.17-.38.25-.57s.16-.38.25-.56l.26-.52.27-.49a4.87,4.87,0,0,1,.27-.45l.25-.42.26-.36.23-.33.41-.5.39-.41v0a.2.2,0,0,0,0-.25.15.15,0,0,0-.18,0,5.62,5.62,0,0,0-.51.29c-.15.1-.33.24-.54.4s-.42.37-.65.6a10,10,0,0,0-.7.81c-.11.15-.24.3-.35.47s-.23.34-.34.52c-.23.35-.44.74-.65,1.14s-.4.82-.56,1.26a12.4,12.4,0,0,0-.45,1.34c-.08.22-.12.45-.18.68s-.11.44-.15.67a12.64,12.64,0,0,0-.18,1.32l-.06.62v.59c0,.19,0,.36,0,.54s0,.35,0,.51,0,.31,0,.45,0,.24.06.35c.07.41.13.65.13.65a.6.6,0,0,0,.66.52.58.58,0,0,0,.4-.63Z" transform="translate(-3)" style="fill:#b1cc66"/><path d="M240,102.09l0-.07a1.12,1.12,0,0,0,0-.22c0-.19,0-.46-.07-.79,0-.17,0-.34,0-.53s0-.39,0-.59,0-.42,0-.64,0-.43.05-.65,0-.43.09-.64a6.17,6.17,0,0,1,.11-.62c.05-.19.09-.39.15-.56a5,5,0,0,1,.15-.5l.16-.41.14-.31c.07-.17.12-.27.12-.27h0a0,0,0,0,0,0-.05,0,0,0,0,0,0,0s-.06.09-.15.25l-.17.29c-.06.12-.13.26-.19.41a4.73,4.73,0,0,0-.2.5l-.1.27c0,.1,0,.2-.08.3a5.82,5.82,0,0,0-.14.63c0,.21-.08.44-.11.66s0,.45-.06.67l0,.65c0,.43,0,.82.06,1.16,0,.16,0,.32.05.45s0,.26,0,.35l.05.23v.08a.12.12,0,0,0,.15.1.13.13,0,0,0,.09-.15Z" transform="translate(-3)" style="fill:#b1cc66"/><path d="M236.15,99.53l.19-.17a1.9,1.9,0,0,0,.22-.2,3.69,3.69,0,0,0,.28-.28c.09-.1.2-.22.3-.35s.21-.27.32-.42a5.52,5.52,0,0,0,.32-.47l.3-.51c.09-.17.18-.35.26-.53l.23-.53c.06-.18.13-.35.18-.51l.14-.47c0-.08,0-.15.05-.21l0-.2c0-.12.05-.22.07-.31s0-.27,0-.27a0,0,0,0,0,0,0,.05.05,0,0,0,0,0h0s0,.09-.07.26-.06.18-.1.3-.08.24-.13.38-.1.29-.16.44l-.1.24c0,.08-.07.16-.11.25s-.15.33-.24.5-.18.33-.27.5-.19.33-.3.48a5,5,0,0,1-.3.45l-.31.4a3.6,3.6,0,0,1-.29.35l-.25.28-.2.21-.18.18a.17.17,0,0,0,0,.2A.11.11,0,0,0,236.15,99.53Z" transform="translate(-3)" style="fill:#b1cc66"/><path d="M238.41,106.27l.32.12c.11,0,.24.06.39.08l.24,0h.27l.29,0,.31,0,.32-.07.32-.1a4.39,4.39,0,0,0,.66-.31c.11-.06.21-.14.32-.21l.3-.23.28-.26c.08-.1.17-.19.25-.3a4.83,4.83,0,0,0,.42-.62c.12-.22.22-.43.31-.62a3.57,3.57,0,0,1,.31-.52,1.71,1.71,0,0,1,.62-.58l.22-.08.08,0h0a.05.05,0,0,0,0,0s0,0,0,0h-.09a1.37,1.37,0,0,0-.24.07,1.77,1.77,0,0,0-.35.19,2.15,2.15,0,0,0-.37.37,4.28,4.28,0,0,0-.35.52l-.34.59a4.38,4.38,0,0,1-.41.58c-.07.09-.16.17-.24.26l-.27.24-.28.21-.3.19a4.06,4.06,0,0,1-.61.27,2.22,2.22,0,0,1-.31.1l-.3.07-.28,0-.27,0h-.25l-.23,0a2.52,2.52,0,0,1-.35-.06l-.33-.1a.13.13,0,0,0-.14.1.15.15,0,0,0,.09.17Z" transform="translate(-3)" style="fill:#b1cc66"/><path d="M242.16,126.16l-.21-.76a1.17,1.17,0,0,1,0-.2l0-.19-.09-.44a1.84,1.84,0,0,1-.05-.25c0-.08,0-.17,0-.27s-.05-.37-.08-.58,0-.41,0-.63,0-.22,0-.33a1.94,1.94,0,0,1,0-.34c0-.24,0-.47,0-.72v-.36c0-.13,0-.25,0-.38,0-.5.07-1,.12-1.53,0-.26.07-.52.11-.78s0-.24.06-.39.05-.23.08-.38.12-.51.17-.77l.21-.74c.06-.25.14-.48.22-.72s.15-.47.24-.69l.26-.65c.09-.21.18-.41.28-.61l.27-.56.28-.51c.1-.17.18-.33.27-.47l.26-.4c.09-.13.16-.25.24-.36s.15-.2.21-.28l.41-.55h0a.18.18,0,0,0,0-.24.15.15,0,0,0-.19,0s-.2.15-.54.44l-.28.24-.3.31-.35.36c-.12.13-.23.28-.35.43s-.25.31-.37.48l-.37.55a13.25,13.25,0,0,0-.7,1.25,7.45,7.45,0,0,0-.32.7c-.11.24-.21.49-.3.74s-.18.52-.26.78-.15.54-.22.81-.07.24-.11.41l-.08.41c0,.28-.11.56-.15.84-.06.56-.14,1.11-.15,1.67a14.2,14.2,0,0,0,0,1.6c0,.25,0,.5.06.75s0,.47.09.7.07.44.12.65,0,.2,0,.3.06.2.08.29.1.36.15.53l.06.23c0,.07,0,.13.07.19l.3.76a.61.61,0,0,0,.74.4.58.58,0,0,0,.28-.71Z" transform="translate(-3)" style="fill:#b1cc66"/><path d="M242,115.13l0-.08s0-.11-.07-.2-.14-.45-.22-.76c0-.16-.09-.33-.13-.51l-.12-.58c0-.2-.07-.41-.1-.62s-.05-.43-.07-.65,0-.43,0-.64,0-.42,0-.62,0-.4,0-.58,0-.36.06-.52.05-.3.07-.43.06-.23.08-.32.07-.29.07-.29h0a0,0,0,0,0,0,0s0,0,0,0l-.11.27-.11.32c0,.13-.07.27-.11.43a4,4,0,0,0-.1.52c0,.1,0,.19,0,.29l0,.31c0,.2,0,.42,0,.64a4.85,4.85,0,0,0,0,.66c0,.23,0,.45.06.67s.06.43.1.64a10.89,10.89,0,0,0,.27,1.12c0,.16.09.31.13.44s.09.24.12.33l.09.21,0,.08a.13.13,0,0,0,.16.07.14.14,0,0,0,.06-.17Z" transform="translate(-3)" style="fill:#b1cc66"/><path d="M241.08,118.7l.08,0a1.46,1.46,0,0,0,.24.07,2.51,2.51,0,0,0,.37.09,3.31,3.31,0,0,0,.48.06,3.74,3.74,0,0,0,.58,0,3.44,3.44,0,0,0,.62-.09,4,4,0,0,0,.65-.19,6.11,6.11,0,0,0,.63-.31,5.34,5.34,0,0,0,.57-.4,5.64,5.64,0,0,0,.5-.47,3.65,3.65,0,0,0,.4-.5,5.6,5.6,0,0,0,.31-.49,1.64,1.64,0,0,0,.12-.22l.1-.21a3.66,3.66,0,0,0,.14-.36,2.16,2.16,0,0,0,.08-.23l0-.08a0,0,0,0,0,0-.05s0,0,0,0h0l0,.08-.09.22c-.05.09-.1.2-.17.32s-.15.26-.24.41l-.33.44c-.13.16-.27.31-.41.46a4.93,4.93,0,0,1-.49.42,5.35,5.35,0,0,1-.56.36,4.11,4.11,0,0,1-.6.28,5.11,5.11,0,0,1-1.2.26,3.29,3.29,0,0,1-.54,0l-.45,0-.35-.07-.23-.06-.08,0a.11.11,0,0,0-.14.1A.15.15,0,0,0,241.08,118.7Z" transform="translate(-3)" style="fill:#b1cc66"/><path d="M241.06,110.62h.57l.16,0,.35-.08.18-.06.19-.08.39-.19a3,3,0,0,0,.37-.25c.12-.09.23-.19.34-.29s.2-.22.3-.32.17-.22.24-.33.14-.22.19-.32a1.09,1.09,0,0,0,.08-.15l.06-.13c0-.09.07-.16.09-.23l.06-.2a0,0,0,0,0,0,0s0,0,0,0h0l-.09.18-.11.2-.16.25-.21.28a.86.86,0,0,1-.13.14l-.13.15c-.09.09-.19.19-.3.28s-.22.17-.33.26a4.05,4.05,0,0,1-.35.21,1.94,1.94,0,0,1-.35.18,3,3,0,0,1-.35.13,1.36,1.36,0,0,1-.32.08l-.14,0-.13,0-.22,0h-.19a.13.13,0,0,0-.11.15A.14.14,0,0,0,241.06,110.62Z" transform="translate(-3)" style="fill:#b1cc66"/><path d="M244.66,118.24l0-.17c0-.06,0-.12,0-.2s0-.15,0-.24a1.53,1.53,0,0,1,0-.3c0-.11,0-.22,0-.33s0-.24,0-.36,0-.24,0-.36.05-.24.08-.35a3.19,3.19,0,0,1,.11-.33,2.71,2.71,0,0,1,.13-.3c0-.09.09-.18.13-.25l.13-.21.11-.15.1-.13h0s0,0,0-.06a0,0,0,0,0-.05,0l-.12.11a.83.83,0,0,0-.14.13l-.09.09-.08.1a1.56,1.56,0,0,0-.17.25,1.46,1.46,0,0,0-.17.3,3.45,3.45,0,0,0-.14.34,2.38,2.38,0,0,0-.11.38c0,.13,0,.26-.06.39s0,.26,0,.39,0,.25,0,.36,0,.23.05.33a1.76,1.76,0,0,0,.07.27,1.91,1.91,0,0,0,.06.21l.07.16a.11.11,0,0,0,.15.08A.12.12,0,0,0,244.66,118.24Z" transform="translate(-3)" style="fill:#b1cc66"/><path d="M244.48,130.92s0-.11-.12-.31l-.07-.16-.06-.19c0-.06,0-.13-.07-.2a2.17,2.17,0,0,0-.07-.24c0-.08-.05-.17-.07-.26l-.06-.28a5.31,5.31,0,0,1-.12-.6c0-.21-.07-.43-.08-.65s0-.44,0-.66,0-.45,0-.66,0-.43.06-.63a2.68,2.68,0,0,1,0-.3,2.33,2.33,0,0,1,.05-.28q.06-.28.12-.51a3.68,3.68,0,0,1,.13-.43,2.92,2.92,0,0,1,.11-.32c.07-.18.1-.28.1-.28h0a.11.11,0,0,0-.05-.14s-.08,0-.1,0l-.19.23a2.94,2.94,0,0,0-.19.29l-.12.18c0,.07-.07.14-.11.22s-.08.15-.11.23l-.11.27a4.7,4.7,0,0,0-.19.6,6.6,6.6,0,0,0-.14.67c0,.24-.05.48-.07.73s0,.49,0,.74,0,.49.07.73.05.23.07.34a3.38,3.38,0,0,0,.08.34,4.55,4.55,0,0,0,.18.59,2.15,2.15,0,0,0,.1.27l.1.24.09.2.08.17.16.3a.34.34,0,0,0,.44.16A.34.34,0,0,0,244.48,130.92Z" transform="translate(-3)" style="fill:#b1cc66"/><path d="M242.89,118.89s.05.08.13.24.2.36.35.61l.25.41a4.73,4.73,0,0,0,.28.46,2.57,2.57,0,0,0,.37.46,1.57,1.57,0,0,0,.26.19l.07,0,.07,0,.15,0a1.22,1.22,0,0,0,.57,0,3.12,3.12,0,0,0,.49-.19c.15-.08.29-.17.41-.25l.35-.23a1.9,1.9,0,0,1,.56-.24l.17,0h.06s0,0,0,0a0,0,0,0,0,0,0h-.24a1.87,1.87,0,0,0-.62.18l-.38.19c-.13.07-.27.15-.41.21a1.7,1.7,0,0,1-.45.15,1.19,1.19,0,0,1-.46,0l-.1,0-.07,0,0,0a.9.9,0,0,1-.19-.15,2.69,2.69,0,0,1-.33-.41l-.52-.84-.38-.6-.14-.23a.12.12,0,0,0-.17,0A.15.15,0,0,0,242.89,118.89Z" transform="translate(-3)" style="fill:#b1cc66"/><path d="M241.7,125.25l0,0,.05-.12a.88.88,0,0,1,.1-.19,2.17,2.17,0,0,1,.15-.22c.11-.17.27-.34.43-.56a1.25,1.25,0,0,0,.12-.17l.11-.17a3.75,3.75,0,0,0,.19-.41,3.59,3.59,0,0,0,.14-.43c0-.07,0-.15.05-.22l0-.22a3,3,0,0,0,0-.42,2.22,2.22,0,0,0,0-.37v-.17l0-.15c0-.09,0-.18-.05-.24a1.26,1.26,0,0,0-.06-.21s0,0,0,0,0,0,0,0h0s0,.08,0,.21a1.4,1.4,0,0,1,0,.23v.3a5.31,5.31,0,0,1-.09.74c0,.13-.06.26-.1.39s-.09.26-.14.39a3.9,3.9,0,0,1-.19.35l-.1.17-.11.15c-.15.21-.31.39-.43.57a2.81,2.81,0,0,0-.25.48,1.26,1.26,0,0,0-.05.16v0a.16.16,0,0,0,.08.18A.11.11,0,0,0,241.7,125.25Z" transform="translate(-3)" style="fill:#b1cc66"/><path d="M240.37,127.5l-.05,0-.12-.13-.08-.09-.09-.13a2.13,2.13,0,0,1-.18-.31,3,3,0,0,1-.2-.4c-.07-.14-.13-.3-.2-.47a9.37,9.37,0,0,0-.48-1l-.08-.14-.07-.12-.18-.24a3.64,3.64,0,0,0-.38-.4,2.78,2.78,0,0,0-.78-.52,2,2,0,0,0-.32-.13l-.26-.06a.59.59,0,0,0-.17,0h0a0,0,0,0,0,0,0,0,0,0,0,0,0,0h0l0,0,.16,0a2.23,2.23,0,0,1,.54.25,2.26,2.26,0,0,1,.34.23c.12.1.23.2.35.32a4.29,4.29,0,0,1,.33.38,1.64,1.64,0,0,1,.14.22l.08.12.06.11c.17.32.31.67.45,1q.1.25.21.48a4.32,4.32,0,0,0,.22.43,3.35,3.35,0,0,0,.22.34l.11.13.1.11a1.32,1.32,0,0,0,.14.13l0,0a.11.11,0,0,0,.17,0A.17.17,0,0,0,240.37,127.5Z" transform="translate(-3)" style="fill:#b1cc66"/><path d="M235,121.34v.21c0,.13,0,.33,0,.55a4.44,4.44,0,0,1-.1.75,2.79,2.79,0,0,1-.39,1.16,2.49,2.49,0,0,1-.2.32,3.2,3.2,0,0,1-.22.27c-.08.08-.15.16-.22.22a3.24,3.24,0,0,1-.37.27l-.15.09h0s0,0,0,.06,0,0,0,0h.05l.12,0a1.57,1.57,0,0,0,.43-.2,2.25,2.25,0,0,0,.52-.44,2.85,2.85,0,0,0,.25-.33,2.06,2.06,0,0,0,.21-.39,4.53,4.53,0,0,0,.25-.87,6.32,6.32,0,0,0,.08-.81,5.91,5.91,0,0,0,0-.6c0-.07,0-.12,0-.16v-.06a.16.16,0,0,0-.14-.15C235,121.21,235,121.27,235,121.34Z" transform="translate(-3)" style="fill:#b1cc66"/><path d="M238.63,116.36h.07a.63.63,0,0,0,.19,0,1.14,1.14,0,0,0,.58-.42,2.09,2.09,0,0,0,.41-1v-.31a1.71,1.71,0,0,0,0-.32,4.5,4.5,0,0,0-.07-.63c0-.21-.08-.42-.12-.62s-.1-.39-.14-.58a9.62,9.62,0,0,1-.18-1,4.07,4.07,0,0,1,0-.72,1.75,1.75,0,0,1,0-.27h0a.05.05,0,0,0,0-.05s0,0,0,0l0,.07a1,1,0,0,0-.06.2,2.84,2.84,0,0,0-.08.75,6.07,6.07,0,0,0,.11,1.07c.08.39.16.79.22,1.19a5.7,5.7,0,0,1,.06.58v.28s0,.1,0,.15v.13a1.9,1.9,0,0,1-.33.84.92.92,0,0,1-.45.36l-.15,0h-.06a.11.11,0,0,0-.09.15A.14.14,0,0,0,238.63,116.36Z" transform="translate(-3)" style="fill:#b1cc66"/><path d="M237.61,115.14l0-.07s0-.11-.06-.2a3.41,3.41,0,0,0-.34-.64,3.85,3.85,0,0,0-.64-.73c-.12-.12-.25-.23-.39-.35l-.4-.34-.4-.34a3.92,3.92,0,0,1-.34-.37,3,3,0,0,1-.48-.79,2.37,2.37,0,0,1-.17-.66c0-.08,0-.15,0-.19v-.07h0s0,0,0,0,0,0,0,0v.07s0,.12,0,.21a2.22,2.22,0,0,0,.11.73,3.09,3.09,0,0,0,.47.92,5.11,5.11,0,0,0,.75.79l.41.35c.13.11.26.22.37.33a5,5,0,0,1,.6.66,3.54,3.54,0,0,1,.32.55c0,.07,0,.12.06.17l0,.06a.14.14,0,0,0,.16.1A.14.14,0,0,0,237.61,115.14Z" transform="translate(-3)" style="fill:#b1cc66"/><path d="M238.19,105.35l0,0a1.78,1.78,0,0,0,.08-.18,2.76,2.76,0,0,0,.17-.69,4.81,4.81,0,0,0,0-1,2.51,2.51,0,0,0,0-.27,2.33,2.33,0,0,0,0-.28c0-.18-.07-.37-.11-.55l-.12-.54c0-.18-.06-.35-.08-.52a4.16,4.16,0,0,1,0-.93,2.32,2.32,0,0,1,.15-.63,1.24,1.24,0,0,1,.1-.22h0a.06.06,0,0,0,0-.06s0,0,0,0l0,0-.1.16a2.3,2.3,0,0,0-.22.65,3.54,3.54,0,0,0-.06,1,10.41,10.41,0,0,0,.16,1.1c0,.19.08.37.11.55s0,.18,0,.26,0,.18,0,.26a4,4,0,0,1,0,.91,3,3,0,0,1-.12.61l-.07.16,0,.06a.16.16,0,0,0,.05.19A.12.12,0,0,0,238.19,105.35Z" transform="translate(-3)" style="fill:#b1cc66"/><path d="M236,105.06V105a1.72,1.72,0,0,0,0-.23,2.61,2.61,0,0,0-.13-.78,4.57,4.57,0,0,0-.45-1l-.16-.24-.17-.24-.35-.46c-.11-.15-.23-.3-.33-.46a4.66,4.66,0,0,1-.3-.47,3.81,3.81,0,0,1-.35-.93,2.46,2.46,0,0,1,0-.73,1.78,1.78,0,0,1,0-.2v-.08h0s0,0,0,0,0,0,0,0l0,.08a1.07,1.07,0,0,0,0,.21,2.19,2.19,0,0,0,0,.79,3.7,3.7,0,0,0,.32,1,6.47,6.47,0,0,0,.63,1c.11.16.23.31.33.47s.11.15.16.22a2.22,2.22,0,0,1,.15.23,4.11,4.11,0,0,1,.43.87,2.76,2.76,0,0,1,.14.67,1.19,1.19,0,0,1,0,.19V105a.16.16,0,0,0,.12.16A.13.13,0,0,0,236,105.06Z" transform="translate(-3)" style="fill:#b1cc66"/><path d="M224.6,89.5a.34.34,0,0,1,0-.24,1.85,1.85,0,0,1-.31-.81.29.29,0,0,1,.28-.29,1.33,1.33,0,0,1,.28,0,2,2,0,0,1-.12-.92.4.4,0,0,1,.66-.29,8.35,8.35,0,0,1,1.84,3.12,32.35,32.35,0,0,0,2.8,5.22,57.15,57.15,0,0,0,3.72,4.49l.51.49c-.19-.35-.38-.68-.57-1l0,0A23.09,23.09,0,0,1,232.28,97c-.66-1-1.48-1.86-2.13-2.85-.41-.63-1.37-1.94-.7-2.67a.35.35,0,0,1,.34-.1,1.79,1.79,0,0,1,.81.66l0,0a.38.38,0,0,1,.38-.14c1.35.42,1.27,3.14,1.83,4.18s1.41,2,1.93,3.19c.11.26.22.52.32.79-.17-.82-.32-1.65-.48-2.49a18.09,18.09,0,0,0-3.21-7.27c-.39-.56-.79-1.13-1.17-1.72a13.45,13.45,0,0,1-2.69-3.6c-.33-.61-1.17-1.79-.41-2.35l.05,0a1.66,1.66,0,0,1-.52-1.65.27.27,0,0,1,.34-.21h0a1.68,1.68,0,0,1,.13-1.48.39.39,0,0,1,.61-.09c1,.9,1.05,2.41,1.21,3.64a15.31,15.31,0,0,0,3.07,7.07,17.55,17.55,0,0,1,3.07,6.47c.2,1,.34,1.9.48,2.86-.05-1.72,0-3.45-.17-5.15a13.55,13.55,0,0,0-1.66-5.34,9,9,0,0,1-1.22-3.06.34.34,0,0,1,.41-.33,3.41,3.41,0,0,1,.54.26,2.09,2.09,0,0,1,.14-.53c.09-.23.4-.16.52,0a3.39,3.39,0,0,1,.55,1.17c.14-.19.42-.08.51.11,1.14,2.61.81,5.49,1,8.27,0,.48,0,1,.06,1.47.09,1.63.14,3.26.23,4.89a16.06,16.06,0,0,0,.73,3.57c.05.13-.15.22-.21.1s-.21-.49-.3-.74c0,.13,0,.26,0,.39a.26.26,0,0,1-.23.29s0,.07,0,.1h0l.3.66c0,.08-.06.18-.13.1a21.89,21.89,0,0,1-2.57-3.92c-1.69-1.9-3.93-3.29-5.58-5.29S225.16,92,224.6,89.5Z" transform="translate(-3)" style="fill:#538235"/><path d="M236.84,103.84c4.35-1.57,5.21,3.82,5.95,6.62s2,8.23,2.91,10.43,2.88,8.69,1.7,9.45-3.39-.37-6.72-7.53-5.26-10.55-6.52-13.28S234,104.86,236.84,103.84Z" transform="translate(-3)" style="fill:#ff6a00"/><path d="M242.28,119.17a5.77,5.77,0,0,0,1.84-3.53c.15.59.31,1.17.47,1.74A3.29,3.29,0,0,1,242.28,119.17Z" transform="translate(-3)" style="fill:#ff4c00"/><path d="M241.8,106.9a20.77,20.77,0,0,1,.64,2.19,3.75,3.75,0,0,1-2.07,2.2A8.43,8.43,0,0,0,241.8,106.9Z" transform="translate(-3)" style="fill:#ff4c00"/><path d="M236.3,104.06a3.45,3.45,0,0,0-.91,3.38c1,4.56,3.78,8.15,6,12.18,1.44,2.62,2.72,8.3,6.34,8.66.12,1,.06,1.82-.31,2.06-1.18.75-3.39-.37-6.72-7.53s-5.26-10.55-6.52-13.28C233,107,233.88,105.12,236.3,104.06Z" transform="translate(-3)" style="fill:#ff6500"/><path d="M205.38,124.69c-1.11-2.73-4.43-4.76-5-7.8-.34-1.89.39-4-.26-5.8-.51-1.36-1.86-2.74-2.06-4.24-.24-1.7,1.36-3,2.06-4.42a9.33,9.33,0,0,0,.43-4.74,9.76,9.76,0,0,1,.49-4.71A6.32,6.32,0,0,1,206,89.35a7,7,0,0,1,5.74,1.87,9.7,9.7,0,0,1,2.07,3.61,6.42,6.42,0,0,0,2.38,3.3c1.31.73,3.12.6,3.89,1.89.62,1,.11,2.5.58,3.58.59,1.35,2.44,2.11,3.29,3.13,1.38,1.67.65,4.83,2.08,6.61,1,1.22,3.1,2.07,3.37,3.75.12.73-.35,1.59-.24,2.32.31,2,3,3,3.37,4.86.32,1.63-1.48,3.21-1.67,4.9a7.26,7.26,0,0,0,.83,3,11.46,11.46,0,0,1,.38,7.87c-2.69,1.23-5.72.5-8.14-.66a12.3,12.3,0,0,0-3.18-1.48c-1.82-.23-3.84,1.18-5.53.28-2.25-1.21-2.51-4.64-4.73-6.11-.82-.54-1.76-.58-2.56-1.19C206.13,129.53,206.12,126.53,205.38,124.69Z" transform="translate(-3)" style="fill:#a2c96b"/><path d="M242.23,147.14s-.81-.56-2.15-1.59c-.68-.52-1.49-1.15-2.41-1.9s-1.93-1.6-3-2.57-2.3-2.09-3.4-3.18-2.43-2.46-3.57-3.75-2.41-2.78-3.57-4.22-2.29-3-3.39-4.57-2.09-3.16-3.09-4.78c-.48-.81-1-1.61-1.4-2.42s-.89-1.6-1.3-2.4c-.8-1.52-1.55-3.08-2.26-4.65-.63-1.41-1.23-2.85-1.8-4.29s-1-2.6-1.35-3.71-.7-2.09-.95-2.91c-.5-1.62-.75-2.56-.75-2.56a.23.23,0,0,0-.28-.19.23.23,0,0,0-.14.29s.17,1,.55,2.63c.2.83.44,1.84.76,3s.7,2.43,1.16,3.82,1,3,1.62,4.43c.65,1.63,1.38,3.22,2.12,4.81.4.82.81,1.65,1.25,2.49s.89,1.66,1.37,2.49c1,1.68,2,3.31,3.06,4.94s2.23,3.16,3.41,4.7,2.38,2.91,3.63,4.32,2.4,2.59,3.67,3.82,2.31,2.18,3.51,3.21,2.17,1.81,3.12,2.55,1.8,1.35,2.5,1.86c1.42,1,2.26,1.53,2.26,1.53a.79.79,0,0,0,1.13-.12A.83.83,0,0,0,242.23,147.14Z" transform="translate(-3)" style="fill:#d1df88"/><path d="M217.23,120.15l-.38-.64-.2-.35-.29-.41c-.1-.15-.22-.31-.33-.48l-.38-.48-.41-.53-.47-.53c-.32-.37-.67-.73-1-1.11-.18-.2-.38-.37-.57-.56s-.38-.38-.59-.56c-.41-.36-.82-.74-1.25-1.08s-.86-.69-1.28-1-.86-.62-1.29-.9l-.63-.41c-.2-.13-.41-.24-.61-.36-.39-.24-.78-.42-1.13-.6s-.69-.32-1-.43-.55-.2-.77-.26c-.43-.1-.67-.14-.67-.14s-.19.07-.19.2a.31.31,0,0,0,.13.24h0l.61.34.69.43c.13.08.27.19.41.29s.31.19.46.31l.49.37a5.87,5.87,0,0,1,.52.39l.55.43.56.45.58.48c.19.17.39.32.58.5.39.34.79.67,1.18,1l1.15,1.06c.19.17.37.36.55.53s.37.34.54.52c.33.36.68.68,1,1l.45.48.4.46.36.41.31.38.27.32c.09.11.16.23.24.32.28.39.45.6.45.6h0a.64.64,0,0,0,.92.16A.73.73,0,0,0,217.23,120.15Z" transform="translate(-3)" style="fill:#d1df88"/><path d="M207.54,111l0-.1c0-.07,0-.16-.08-.28s-.07-.26-.12-.43-.1-.35-.17-.55c-.14-.4-.3-.87-.49-1.37l-.32-.75c-.11-.26-.22-.52-.35-.77s-.24-.51-.38-.76-.26-.48-.4-.71-.13-.22-.2-.33a3.28,3.28,0,0,0-.2-.31c-.14-.19-.26-.39-.39-.55l-.34-.44-.29-.32-.25-.28a0,0,0,0,0,0,0,0,0,0,0,0,0,.07h0l.22.31.26.34c.09.14.19.3.31.47s.22.36.34.56.25.43.37.65.24.47.37.71.23.5.35.74.22.51.33.76.21.5.3.74.19.48.27.7.16.44.23.64c.14.39.25.72.32,1s.06.2.08.26l0,.1h0c0,.09.11.15.18.13A.14.14,0,0,0,207.54,111Z" transform="translate(-3)" style="fill:#d1df88"/><path d="M210.14,106.16l-.26-.13a1.94,1.94,0,0,1-.3-.14l-.38-.21a4.54,4.54,0,0,1-.44-.28c-.16-.09-.32-.22-.48-.33a6.4,6.4,0,0,1-.5-.41c-.17-.14-.33-.3-.49-.45s-.32-.32-.47-.5-.29-.34-.43-.51l-.19-.26-.18-.26c-.12-.16-.22-.32-.32-.48l-.25-.42-.18-.34-.16-.29h0a0,0,0,0,0-.06,0,.06.06,0,0,0,0,.06s.05.12.12.33.1.22.16.36l.1.22a2.68,2.68,0,0,1,.12.24l.29.52c.11.18.24.37.37.56s.27.37.42.55.31.36.47.54l.51.48c.17.16.35.29.52.43l.5.34.47.28c.14.08.28.14.4.2l.32.13.27.1a.12.12,0,0,0,.16-.1A.18.18,0,0,0,210.14,106.16Z" transform="translate(-3)" style="fill:#d1df88"/><path d="M211,114.48l-.25.3c-.09.07-.18.18-.31.28l-.2.16-.24.15a2.34,2.34,0,0,1-.27.15,2.71,2.71,0,0,1-.3.13,1.93,1.93,0,0,1-.34.11,3.58,3.58,0,0,1-.35.09,4,4,0,0,1-.78.06l-.41,0-.42-.07-.42-.13a4.3,4.3,0,0,1-.41-.16,4.93,4.93,0,0,1-.77-.44l-.72-.54a6,6,0,0,0-.67-.45,2.55,2.55,0,0,0-.6-.27,1.9,1.9,0,0,0-.47-.07.89.89,0,0,0-.29,0l-.1,0a0,0,0,0,0,0,.06s0,0,.05,0h0l.09,0h.28a2.3,2.3,0,0,1,1,.4,5.87,5.87,0,0,1,.63.48c.22.18.45.38.71.57a4.9,4.9,0,0,0,.82.51,3.43,3.43,0,0,0,.44.19,3.88,3.88,0,0,0,.45.14l.45.09.44,0a3.87,3.87,0,0,0,.84-.06,2.34,2.34,0,0,0,.38-.09l.35-.13a1.87,1.87,0,0,0,.32-.15,2.69,2.69,0,0,0,.29-.16l.25-.18.21-.18c.13-.12.24-.24.33-.33l.23-.31h0a.19.19,0,0,0,0-.23A.13.13,0,0,0,211,114.48Z" transform="translate(-3)" style="fill:#d1df88"/><path d="M226.37,133l-.61-.69c0-.05-.09-.11-.16-.17l-.19-.19c-.13-.14-.28-.28-.44-.43l-.24-.24-.26-.23-.57-.49c-.19-.17-.41-.33-.62-.51s-.44-.36-.68-.53c-.48-.34-1-.72-1.51-1.06s-1.09-.69-1.65-1l-.87-.49-.44-.25-.44-.23-.89-.47-.89-.42c-.29-.15-.59-.27-.88-.4l-.87-.36c-.57-.21-1.12-.45-1.65-.6l-.77-.24-.72-.19c-.23,0-.45-.12-.66-.16l-.6-.11-.52-.09-.45,0-.83-.06c-.1,0-.17.09-.15.22a.33.33,0,0,0,.18.23h0l.82.28c.13,0,.28.08.43.14l.51.2.57.21c.2.07.41.17.63.26l.68.28.72.33c.25.11.5.22.76.35l.79.38c.27.13.54.28.81.42s.55.27.83.43l.83.45.84.47.41.24.41.25.82.49c.53.34,1.06.65,1.56,1l.37.25.19.12.17.12.7.49.33.23.31.24c.21.15.42.29.6.44l.54.43.25.19.22.19.4.34.18.15.17.15c.42.41.67.63.67.63h0a.63.63,0,0,0,.93,0A.72.72,0,0,0,226.37,133Z" transform="translate(-3)" style="fill:#d1df88"/><path d="M215.13,125.81l0-.09a1.73,1.73,0,0,0-.12-.26l-.2-.4-.27-.51c-.21-.36-.45-.79-.74-1.24l-.44-.68c-.17-.22-.32-.46-.49-.68s-.34-.46-.52-.67-.34-.42-.52-.61-.17-.2-.26-.29a3.13,3.13,0,0,0-.25-.26c-.17-.17-.33-.34-.49-.47l-.42-.37L210,119l-.29-.23a0,0,0,0,0-.06,0s0,0,0,.06h0l.28.26.31.29q.16.18.39.39c.14.14.29.32.44.49s.32.36.48.56.33.41.49.62.32.45.49.66.31.46.47.68.29.45.43.67.27.43.39.63.24.4.34.58c.21.36.38.66.49.87l.14.24,0,.09h0a.17.17,0,0,0,.21.1A.16.16,0,0,0,215.13,125.81Z" transform="translate(-3)" style="fill:#d1df88"/><path d="M218.52,127.91l0,.09c0,.06-.06.15-.1.25l-.18.37c-.08.14-.17.3-.27.46a5.09,5.09,0,0,1-.38.5,5.43,5.43,0,0,1-.48.48,4.41,4.41,0,0,1-.58.44,5.21,5.21,0,0,1-.67.33,4.87,4.87,0,0,1-1.5.32,6,6,0,0,1-.74,0,6.52,6.52,0,0,1-.68-.1l-.58-.15-.45-.16-.29-.12-.11,0h0a0,0,0,0,0-.05,0,.07.07,0,0,0,0,.06l.11.06.29.15a3.4,3.4,0,0,0,.46.21l.28.11.32.1a4.94,4.94,0,0,0,.71.15,4.14,4.14,0,0,0,.79.06,5.52,5.52,0,0,0,.81-.06,5,5,0,0,0,.78-.21,4,4,0,0,0,.72-.36,5.06,5.06,0,0,0,.63-.45,6.17,6.17,0,0,0,.5-.53,4.36,4.36,0,0,0,.38-.53,4.18,4.18,0,0,0,.27-.5,4,4,0,0,0,.17-.41,2.09,2.09,0,0,0,.09-.27l0-.09a.18.18,0,0,0-.09-.22A.12.12,0,0,0,218.52,127.91Z" transform="translate(-3)" style="fill:#d1df88"/><path d="M211.63,120.64l-.18.13a1.1,1.1,0,0,1-.21.14l-.12.08-.15.07a2.17,2.17,0,0,1-.35.15,4,4,0,0,1-.41.13c-.14,0-.29.06-.45.07a3.91,3.91,0,0,1-.49,0,4,4,0,0,1-.49,0c-.17,0-.33-.06-.49-.09l-.24-.07-.22-.07a2.52,2.52,0,0,1-.41-.17,2.15,2.15,0,0,1-.34-.17,2.18,2.18,0,0,1-.27-.15l-.22-.14h0a0,0,0,0,0-.05,0,.07.07,0,0,0,0,.07l.22.19a2.21,2.21,0,0,0,.26.19l.16.12.18.11a4.32,4.32,0,0,0,.43.22c.15.08.31.13.48.2a4.56,4.56,0,0,0,.53.13,3.07,3.07,0,0,0,.53.06,4.64,4.64,0,0,0,.53,0,3.85,3.85,0,0,0,.49-.08l.22-.07.21-.07.37-.18.16-.09.13-.1a1.41,1.41,0,0,0,.21-.16l.17-.16a.18.18,0,0,0,0-.23A.14.14,0,0,0,211.63,120.64Z" transform="translate(-3)" style="fill:#d1df88"/><path d="M216.15,130.89l-.13-.2-.16-.24c-.07-.09-.14-.19-.23-.29l-.29-.32c-.11-.12-.23-.22-.35-.34s-.25-.22-.39-.32l-.43-.29c-.15-.08-.29-.17-.44-.24a3.25,3.25,0,0,0-.44-.19,2.41,2.41,0,0,0-.41-.13,1.76,1.76,0,0,0-.37-.08l-.16,0h-.14a1.75,1.75,0,0,0-.23,0h-.2a0,0,0,0,0,0,.06s0,0,.05,0h0l.2,0,.23.05.29.09.35.12a3.89,3.89,0,0,1,.38.16c.13.07.27.13.4.21s.27.16.4.24.27.18.39.28l.36.3.33.3.27.29.22.25.16.21.14.19a.17.17,0,0,0,.22.06A.18.18,0,0,0,216.15,130.89Z" transform="translate(-3)" style="fill:#d1df88"/><path d="M230,138.09l-.27-.28a1,1,0,0,0-.14-.15l-.19-.18-.22-.2-.25-.21c-.17-.14-.36-.29-.57-.44l-.32-.22-.34-.22c-.24-.14-.48-.29-.74-.41s-.52-.25-.78-.37-.53-.21-.8-.29a5.69,5.69,0,0,0-.78-.22,6.6,6.6,0,0,0-.73-.13l-.33,0a1.67,1.67,0,0,0-.31,0h-.54l-.4,0-.35.05a.1.1,0,0,0-.06.13.16.16,0,0,0,.11.1h0l.35.07.41.08.51.12a5.68,5.68,0,0,1,.61.17,2.07,2.07,0,0,1,.33.1l.34.11.71.27c.24.09.47.21.71.32a7.67,7.67,0,0,1,.7.36,6.15,6.15,0,0,1,.67.38c.21.13.42.25.61.39l.27.18.26.19.23.17.2.16.18.13.15.14.31.25a.36.36,0,0,0,.52,0A.4.4,0,0,0,230,138.09Z" transform="translate(-3)" style="fill:#d1df88"/><path d="M217.33,120.23l-.28-.69q-.08-.17-.15-.36c0-.12-.08-.26-.13-.4s-.1-.29-.15-.45-.09-.34-.14-.52-.1-.37-.15-.57-.09-.41-.13-.62c-.1-.42-.15-.88-.23-1.34,0-.23-.05-.47-.08-.71s0-.49,0-.73c0-.49-.06-1-.05-1.48s0-1,.05-1.48c0-.24,0-.47.06-.71s0-.47.08-.69.06-.45.1-.66.07-.42.11-.63.08-.4.13-.58.09-.37.13-.55.1-.33.14-.48.09-.31.14-.44l.26-.69c.18-.36.27-.58.27-.58v0a.2.2,0,0,0-.09-.27.18.18,0,0,0-.21,0s-.16.17-.44.5c-.13.16-.28.38-.45.63s-.32.55-.49.88a10.18,10.18,0,0,0-.46,1.13c-.07.2-.15.41-.22.63l-.18.68c-.12.47-.21,1-.3,1.47s-.13,1-.15,1.58,0,1.07,0,1.61c0,.26,0,.53.06.8a6.87,6.87,0,0,0,.08.78c.07.52.15,1,.26,1.49.06.24.11.47.17.69s.14.44.2.65.13.4.2.59.15.37.23.53.13.33.2.47.13.25.19.36c.23.43.37.66.37.66a.68.68,0,0,0,.9.33.66.66,0,0,0,.21-.83Z" transform="translate(-3)" style="fill:#d1df88"/><path d="M215.49,107.76l0-.08c0-.06-.07-.13-.11-.23s-.22-.48-.37-.83c-.07-.17-.15-.36-.22-.56s-.14-.42-.22-.64l-.21-.69c-.06-.24-.12-.48-.17-.73s-.11-.48-.14-.73a6,6,0,0,1-.09-.71c0-.23,0-.45,0-.66s0-.41,0-.6,0-.35,0-.5,0-.27,0-.38,0-.34,0-.34h0s0,0,0,0,0,0,0,0l-.08.33-.08.38c0,.15,0,.32-.06.5s0,.39,0,.61,0,.22,0,.33,0,.24,0,.36,0,.48.07.73a7,7,0,0,0,.12.76c0,.25.11.5.17.75s.13.48.21.71a11.86,11.86,0,0,0,.47,1.23c.07.18.15.34.22.48l.18.36c0,.1.1.18.13.23l0,.08a.14.14,0,0,0,.19.06.15.15,0,0,0,0-.2Z" transform="translate(-3)" style="fill:#d1df88"/><path d="M210.45,106.33l.14-.25a2.24,2.24,0,0,0,.17-.29l.2-.4c.07-.15.13-.32.2-.49s.14-.37.2-.57.12-.41.17-.62.1-.44.15-.66.07-.45.09-.67,0-.45.06-.66,0-.42,0-.62a5,5,0,0,0,0-.56c0-.09,0-.17,0-.25a1.8,1.8,0,0,1,0-.22c0-.14,0-.26,0-.36l-.05-.32a0,0,0,0,0-.05,0s0,0,0,.05h0s0,.11,0,.31,0,.22,0,.36,0,.29,0,.46,0,.34,0,.53,0,.2,0,.3l0,.3c0,.21,0,.42-.08.63s-.08.43-.12.64-.09.43-.14.63-.12.41-.18.6-.12.38-.18.55l-.19.47c-.06.15-.12.28-.18.4l-.14.29c-.09.17-.13.26-.13.26a.18.18,0,0,0,0,.23A.12.12,0,0,0,210.45,106.33Z" transform="translate(-3)" style="fill:#d1df88"/><path d="M215.3,112.84h.39a4.3,4.3,0,0,0,.46,0l.27-.06.29-.08a2.85,2.85,0,0,0,.31-.12,1.87,1.87,0,0,0,.32-.15,2.79,2.79,0,0,0,.33-.19A2.13,2.13,0,0,0,218,112a4.48,4.48,0,0,0,.6-.56l.27-.34.24-.36c.07-.13.15-.25.21-.39s.12-.26.17-.4a6.9,6.9,0,0,0,.23-.83c0-.28.08-.54.12-.79a4.4,4.4,0,0,1,.14-.67,2,2,0,0,1,.47-.85,2,2,0,0,1,.21-.17l.08-.05h0a0,0,0,0,0,0-.06.07.07,0,0,0-.06,0l-.09.05a1.23,1.23,0,0,0-.24.15,2.13,2.13,0,0,0-.31.34,2.62,2.62,0,0,0-.27.53,4.32,4.32,0,0,0-.19.69c-.06.24-.1.51-.16.76a4.29,4.29,0,0,1-.24.77,2.48,2.48,0,0,1-.17.37c-.06.12-.13.24-.2.36s-.15.23-.23.33a3.88,3.88,0,0,1-.26.31,5.39,5.39,0,0,1-.56.52l-.3.21a2.38,2.38,0,0,1-.3.18,2.1,2.1,0,0,1-.3.15l-.29.11-.27.08-.25.06-.41.06h-.38a.13.13,0,0,0-.12.16.17.17,0,0,0,.15.15Z" transform="translate(-3)" style="fill:#d1df88"/><path d="M226.48,133.07l-.5-.76c0-.06-.09-.12-.13-.19l-.11-.2-.25-.44a2,2,0,0,1-.14-.25l-.14-.28-.29-.6c-.11-.21-.19-.43-.29-.66l-.14-.36a3.84,3.84,0,0,1-.14-.36l-.27-.77c0-.07-.05-.13-.07-.2l-.06-.2c0-.14-.07-.27-.11-.41-.18-.55-.29-1.13-.42-1.71-.06-.29-.1-.59-.16-.88s0-.27-.07-.45l-.05-.44-.09-.89c0-.3,0-.59,0-.88s0-.58,0-.86,0-.56,0-.83,0-.54.05-.8.05-.51.08-.76l.09-.71c0-.23.09-.45.13-.66s.07-.41.12-.6.1-.36.14-.53.09-.32.13-.47.09-.27.13-.38l.25-.74v0a.2.2,0,0,0-.12-.24.16.16,0,0,0-.21.06s-.16.23-.42.66c-.07.11-.15.23-.22.36s-.14.29-.22.44l-.25.52c-.08.18-.14.38-.22.59s-.16.43-.24.66-.13.47-.19.72a12.39,12.39,0,0,0-.32,1.61c-.05.29-.07.58-.1.88s-.05.6-.05.91,0,.62,0,.93,0,.64.05,1,0,.29,0,.48,0,.29.06.48.08.64.14,1c.13.63.25,1.26.43,1.86a16.7,16.7,0,0,0,.58,1.73,8.14,8.14,0,0,0,.33.79c.12.26.23.5.35.74l.36.66c.06.1.12.2.17.3l.19.29c.12.19.24.36.35.52l.15.22a1.57,1.57,0,0,0,.15.19l.59.72a.69.69,0,0,0,.95.16.67.67,0,0,0,.05-.87Z" transform="translate(-3)" style="fill:#d1df88"/><path d="M222.33,121.17l-.06-.07s-.08-.11-.15-.2-.3-.43-.51-.74l-.32-.51c-.11-.18-.22-.38-.33-.59s-.22-.41-.34-.63-.21-.45-.3-.68-.2-.45-.27-.68a6.81,6.81,0,0,1-.23-.68c-.06-.22-.12-.43-.17-.64s-.09-.4-.11-.58-.06-.34-.08-.49,0-.28,0-.38,0-.34,0-.34h0a0,0,0,0,0,0,0s0,0,0,0,0,.12,0,.34,0,.23,0,.38,0,.32,0,.51,0,.39.08.6,0,.22.06.33.05.22.08.34.13.46.2.7.17.48.26.72l.31.7c.11.22.22.44.34.65a11.7,11.7,0,0,0,.69,1.12c.1.16.21.3.3.43l.25.31.17.21.06.06a.14.14,0,0,0,.2,0,.17.17,0,0,0,0-.21Z" transform="translate(-3)" style="fill:#d1df88"/><path d="M222.65,125.36H223a4,4,0,0,0,.44,0,4.31,4.31,0,0,0,.55-.1c.19-.06.4-.12.62-.21a3.82,3.82,0,0,0,.64-.32,5.47,5.47,0,0,0,.63-.44,6.11,6.11,0,0,0,.58-.56,6.28,6.28,0,0,0,.48-.64c.13-.23.26-.46.37-.69a7.23,7.23,0,0,0,.26-.68c.07-.23.12-.44.16-.64s0-.2.05-.29,0-.18,0-.27a3.59,3.59,0,0,0,0-.43v-.37a0,0,0,0,0-.05-.05s0,0,0,0h0v.1c0,.06,0,.15,0,.27s0,.25-.07.41-.07.33-.12.53a4.68,4.68,0,0,1-.2.6,5,5,0,0,1-.28.64,7,7,0,0,1-.38.63,5.29,5.29,0,0,1-.47.59,4.38,4.38,0,0,1-.55.51,4,4,0,0,1-.6.41,4.38,4.38,0,0,1-.61.31,5,5,0,0,1-.58.2l-.51.12-.4.05-.27,0h-.1a.12.12,0,0,0-.11.16A.16.16,0,0,0,222.65,125.36Z" transform="translate(-3)" style="fill:#d1df88"/><path d="M219.73,116.6l.22-.06.24-.09.16-.06.16-.09a2.7,2.7,0,0,0,.35-.21L221,116l.18-.15a3.76,3.76,0,0,0,.34-.35c.12-.12.21-.27.32-.4a5.06,5.06,0,0,0,.26-.44,3.58,3.58,0,0,0,.21-.45c.06-.16.11-.3.15-.45a3.85,3.85,0,0,0,.09-.41l0-.19,0-.17c0-.1,0-.2,0-.27v-.24a0,0,0,0,0,0,0s0,0,0,0h0a2.32,2.32,0,0,0,0,.23c0,.07,0,.16-.05.26a2.66,2.66,0,0,1-.09.32,3.3,3.3,0,0,1-.12.38,1.76,1.76,0,0,1-.09.2,1.89,1.89,0,0,1-.09.21,4,4,0,0,1-.22.4c-.08.14-.18.27-.26.4s-.2.25-.31.36a3.22,3.22,0,0,1-.32.32l-.33.27a1.87,1.87,0,0,1-.32.2l-.14.09-.14.06a1.38,1.38,0,0,1-.22.1l-.21.08a.16.16,0,0,0-.07.2A.16.16,0,0,0,219.73,116.6Z" transform="translate(-3)" style="fill:#d1df88"/><path d="M226.36,123.58l-.11-.17a1.57,1.57,0,0,1-.12-.19L226,123a2.92,2.92,0,0,1-.14-.31c0-.11-.09-.24-.14-.36s-.08-.26-.1-.39a2.7,2.7,0,0,1-.08-.41c0-.14,0-.27,0-.41v-.4c0-.12,0-.25,0-.36s0-.23.06-.33,0-.19.07-.27a1.67,1.67,0,0,1,.06-.2l.06-.18h0a0,0,0,0,0,0-.06,0,0,0,0,0-.05,0l-.1.17a1.09,1.09,0,0,0-.1.19l-.06.12-.05.15a2.12,2.12,0,0,0-.11.33,3.7,3.7,0,0,0-.07.38,3,3,0,0,0,0,.43,3.31,3.31,0,0,0,0,.44,3.5,3.5,0,0,0,.07.45,3,3,0,0,0,.11.43l.15.39c.06.12.11.23.17.33a2.29,2.29,0,0,0,.17.28l.14.2.13.15a.14.14,0,1,0,.22-.16Z" transform="translate(-3)" style="fill:#d1df88"/><path d="M230.7,137.4l-.25-.3-.12-.15c0-.06-.09-.11-.13-.18l-.15-.2-.16-.23a2.2,2.2,0,0,1-.17-.25l-.18-.28c-.12-.19-.22-.4-.34-.61s-.22-.44-.31-.67-.19-.47-.28-.71a6.59,6.59,0,0,1-.22-.72c-.07-.24-.11-.48-.16-.71l-.06-.34c0-.11,0-.22,0-.33s0-.41,0-.59,0-.36,0-.51,0-.28,0-.39,0-.34,0-.34h0a.14.14,0,0,0-.11-.13.11.11,0,0,0-.1.06l-.12.32a3.72,3.72,0,0,0-.11.38c0,.07,0,.15,0,.23s0,.18-.05.28,0,.19,0,.3,0,.21,0,.32a5.82,5.82,0,0,0,0,.72,7.47,7.47,0,0,0,.09.78,7.84,7.84,0,0,0,.18.81c.09.27.17.54.28.8s.23.52.35.76l.19.35a2.66,2.66,0,0,0,.21.33,5.55,5.55,0,0,0,.41.59l.19.25.2.22.17.2.15.14.28.27a.34.34,0,1,0,.51-.46Z" transform="translate(-3)" style="fill:#d1df88"/><path d="M224.67,124.92a2.78,2.78,0,0,1,.23.21l.6.55.41.35c.15.13.3.26.47.39a2.61,2.61,0,0,0,.58.37,1.23,1.23,0,0,0,.34.11l.09,0h.26a1.39,1.39,0,0,0,.62-.22,2.52,2.52,0,0,0,.47-.38,4.32,4.32,0,0,0,.35-.42l.3-.37a2.25,2.25,0,0,1,.52-.46,1,1,0,0,1,.17-.09l.06,0h0a0,0,0,0,0,0-.06,0,0,0,0,0,0,0l-.07,0a.8.8,0,0,0-.2.07,2.2,2.2,0,0,0-.6.42c-.11.1-.22.22-.34.34s-.24.26-.37.38a2.13,2.13,0,0,1-.43.31,1.38,1.38,0,0,1-.51.16h-.26a.82.82,0,0,1-.26-.1,2.65,2.65,0,0,1-.5-.32c-.32-.26-.62-.51-.87-.73l-.62-.51-.24-.2a.14.14,0,0,0-.2,0A.18.18,0,0,0,224.67,124.92Z" transform="translate(-3)" style="fill:#d1df88"/><path d="M225.66,132.24v-.05a.92.92,0,0,1,0-.16c0-.06,0-.14,0-.23s0-.19.08-.3.18-.47.28-.76l.07-.23c0-.07,0-.14.05-.23a4.18,4.18,0,0,0,.06-.51,2.9,2.9,0,0,0,0-.51l0-.26a2,2,0,0,0,0-.24c0-.17-.07-.32-.11-.47s-.1-.28-.15-.41l-.08-.17-.07-.16-.14-.24c-.08-.13-.14-.21-.14-.21a0,0,0,0,0-.06,0,0,0,0,0,0,0,0h0l.1.22.1.25c0,.09.07.2.1.32a4.67,4.67,0,0,1,.17.83,3.55,3.55,0,0,1,0,.46,3.62,3.62,0,0,1,0,.47,3.06,3.06,0,0,1-.06.45l-.06.23-.06.2c-.09.27-.19.53-.26.77a2.83,2.83,0,0,0-.11.61,1,1,0,0,0,0,.19v.06a.18.18,0,0,0,.16.16A.12.12,0,0,0,225.66,132.24Z" transform="translate(-3)" style="fill:#d1df88"/><path d="M225,135.16l-.06,0a.85.85,0,0,1-.18-.1l-.12-.07-.14-.1-.31-.27-.36-.36-.38-.44a11.13,11.13,0,0,0-.89-1l-.13-.11-.13-.1-.28-.2a4.4,4.4,0,0,0-.56-.31,3.21,3.21,0,0,0-1-.28,1.91,1.91,0,0,0-.4,0l-.3,0-.19,0h-.06a0,0,0,0,0,0,.06s0,0,.05,0h.25a3.3,3.3,0,0,1,.68.08,3.26,3.26,0,0,1,.45.14,2.89,2.89,0,0,1,.49.21c.17.09.33.19.5.3l.23.18.12.11.11.1a10.4,10.4,0,0,1,.84.92l.4.45.39.38a3.84,3.84,0,0,0,.37.29l.16.11.15.08a1.27,1.27,0,0,0,.2.09l.07,0a.12.12,0,0,0,.18-.08A.18.18,0,0,0,225,135.16Z" transform="translate(-3)" style="fill:#d1df88"/><path d="M217,130.41l0,.07a1.2,1.2,0,0,0,.06.17c0,.13.1.35.16.59a6.23,6.23,0,0,1,.17.86,5,5,0,0,1,0,1c0,.14,0,.31-.06.45s-.07.28-.11.42-.1.25-.15.37a2.25,2.25,0,0,1-.16.31,3.35,3.35,0,0,1-.3.43l-.13.15h0a.06.06,0,0,0,0,.07,0,0,0,0,0,.06,0l.05,0,.12-.09a2.11,2.11,0,0,0,.39-.37,3,3,0,0,0,.41-.67,3.26,3.26,0,0,0,.15-.44,3.71,3.71,0,0,0,.09-.5,4.4,4.4,0,0,0-.05-1,8,8,0,0,0-.19-.91c-.08-.27-.16-.49-.22-.65s-.06-.13-.07-.17l0-.06a.18.18,0,0,0-.2-.12A.13.13,0,0,0,217,130.41Z" transform="translate(-3)" style="fill:#d1df88"/><path d="M219.15,123.7l.07,0,.2-.11a1.39,1.39,0,0,0,.47-.67,2.41,2.41,0,0,0,.09-1.22l0-.09v-.09a1.24,1.24,0,0,0,0-.16c0-.12-.07-.23-.11-.35a5.65,5.65,0,0,0-.31-.66,6.27,6.27,0,0,0-.36-.62l-.35-.58a7.85,7.85,0,0,1-.56-1.05,4.77,4.77,0,0,1-.25-.78c0-.2,0-.31,0-.31h0a0,0,0,0,0,0,0,0,0,0,0,0,0,0v.08a2.27,2.27,0,0,0,0,.24,3.54,3.54,0,0,0,.18.84,7.18,7.18,0,0,0,.51,1.12c.22.39.45.8.66,1.21a3.76,3.76,0,0,1,.27.62,2.11,2.11,0,0,1,.1.3.94.94,0,0,1,0,.16v.14a2.19,2.19,0,0,1-.06,1,1.18,1.18,0,0,1-.35.55.56.56,0,0,1-.15.1l-.07,0a.15.15,0,0,0,0,.2A.17.17,0,0,0,219.15,123.7Z" transform="translate(-3)" style="fill:#d1df88"/><path d="M217.6,122.74l0-.06a1.55,1.55,0,0,0-.14-.2,3.24,3.24,0,0,0-.59-.58,5.41,5.41,0,0,0-1-.56c-.18-.09-.37-.16-.55-.23l-.56-.23-.55-.23c-.18-.09-.35-.18-.51-.28a3.41,3.41,0,0,1-.8-.68,2.8,2.8,0,0,1-.42-.66l-.08-.2,0-.08h0a.05.05,0,0,0-.06,0,0,0,0,0,0,0,.05v.08s0,.13.06.23a2.5,2.5,0,0,0,.38.75,3.49,3.49,0,0,0,.84.83,6.46,6.46,0,0,0,1.1.59l.56.23.53.23a4.52,4.52,0,0,1,.88.5,3.5,3.5,0,0,1,.54.48l.13.16,0,.06a.13.13,0,0,0,.2,0A.15.15,0,0,0,217.6,122.74Z" transform="translate(-3)" style="fill:#d1df88"/><path d="M214.73,111.92l0-.07s0-.12,0-.22a2.73,2.73,0,0,0-.06-.81,5,5,0,0,0-.37-1.08,2.44,2.44,0,0,0-.14-.28l-.15-.28c-.1-.19-.21-.37-.32-.56l-.32-.54c-.1-.19-.19-.36-.27-.54a4.8,4.8,0,0,1-.35-1,3.05,3.05,0,0,1-.06-.74,1.87,1.87,0,0,1,0-.27h0s0,0,0,0,0,0,0,0l0,.07a.81.81,0,0,0,0,.21,2.72,2.72,0,0,0,0,.78,4.67,4.67,0,0,0,.3,1.1,11.16,11.16,0,0,0,.57,1.15l.31.55.14.27.13.27a5.31,5.31,0,0,1,.35,1,2.48,2.48,0,0,1,.08.7,1,1,0,0,1,0,.19v.08a.18.18,0,0,0,.12.19A.13.13,0,0,0,214.73,111.92Z" transform="translate(-3)" style="fill:#d1df88"/><path d="M212.25,112.39l0-.08s0-.14-.07-.25a3.34,3.34,0,0,0-.43-.79,4.62,4.62,0,0,0-.84-.89,2.43,2.43,0,0,0-.25-.2l-.27-.2-.54-.37-.53-.38a4.72,4.72,0,0,1-.48-.41,4,4,0,0,1-.72-.88,3.33,3.33,0,0,1-.32-.77c0-.1,0-.18,0-.23v-.09h0s0,0,0,0,0,0,0,0v.09c0,.06,0,.14,0,.25a2.75,2.75,0,0,0,.27.86,4,4,0,0,0,.73,1,7.7,7.7,0,0,0,1,.86l.53.38.26.19.24.2a4.74,4.74,0,0,1,.77.79,2.94,2.94,0,0,1,.39.67c0,.09.06.15.08.21l0,.08a.17.17,0,0,0,.18.12A.15.15,0,0,0,212.25,112.39Z" transform="translate(-3)" style="fill:#d1df88"/><path d="M282.55,120.84c-2.28-2.11-4.92-2.93-8.93-2.15s-6.35,4.14-8.91,8.53c-3,5.08-6.51,11.64-2.13,15.79s12.55,2.53,18.23-2.77S287.75,125.65,282.55,120.84Z" transform="translate(-3)" style="fill:url(#a)"/><g style="clip-path:url(#c)"><path d="M274,124.32c-.17-.12-.38.13-.21.26S274.14,124.45,274,124.32Z" transform="translate(-3)" style="fill:#454c53;mix-blend-mode:soft-light"/><path d="M273.19,127.18c-.12-.08-.27.1-.15.18S273.31,127.27,273.19,127.18Z" transform="translate(-3)" style="fill:#454c53;mix-blend-mode:soft-light"/><path d="M275.58,126c-.1-.07-.23.08-.12.16A.1.1,0,0,0,275.58,126Z" transform="translate(-3)" style="fill:#454c53;mix-blend-mode:soft-light"/><path d="M275.85,128.79c-.09-.06-.19.07-.1.13S275.94,128.86,275.85,128.79Z" transform="translate(-3)" style="fill:#454c53;mix-blend-mode:soft-light"/><path d="M274.84,131.31c.05-.13-.1-.28-.22-.18a.8.8,0,0,0-.13.13c-.14.18.14.4.26.22A.7.7,0,0,0,274.84,131.31Z" transform="translate(-3)" style="fill:#454c53;mix-blend-mode:soft-light"/><path d="M278.62,129.63a.21.21,0,0,0-.34.13v.06c0,.13.12.26.24.2l.06,0A.21.21,0,0,0,278.62,129.63Z" transform="translate(-3)" style="fill:#454c53;mix-blend-mode:soft-light"/><path d="M278.68,132.24c-.18-.13-.4.14-.22.28S278.86,132.38,278.68,132.24Z" transform="translate(-3)" style="fill:#454c53;mix-blend-mode:soft-light"/><path d="M275.5,135.05a.93.93,0,0,0-.15.13.13.13,0,0,0,.11.21.42.42,0,0,0,.2,0C275.89,135.26,275.72,134.93,275.5,135.05Z" transform="translate(-3)" style="fill:#454c53;mix-blend-mode:soft-light"/><path d="M272,135.85l-.07,0c-.15,0-.32.11-.21.26l.05.06C272,136.38,272.23,136,272,135.85Z" transform="translate(-3)" style="fill:#454c53;mix-blend-mode:soft-light"/><path d="M271.05,131.15a.2.2,0,0,0,0-.18s-.13,0-.15,0a.19.19,0,0,0,0,.18C270.9,131.25,271,131.25,271.05,131.15Z" transform="translate(-3)" style="fill:#454c53;mix-blend-mode:soft-light"/><path d="M269.61,127.34a.38.38,0,0,0-.13-.06.13.13,0,0,0-.13.21.19.19,0,0,0,.07.08C269.58,127.68,269.76,127.46,269.61,127.34Z" transform="translate(-3)" style="fill:#454c53;mix-blend-mode:soft-light"/><path d="M271.22,124c-.11-.08-.24.08-.14.16S271.32,124.06,271.22,124Z" transform="translate(-3)" style="fill:#454c53;mix-blend-mode:soft-light"/><path d="M280.66,125.42c-.12-.09-.27.09-.15.18S280.78,125.51,280.66,125.42Z" transform="translate(-3)" style="fill:#454c53;mix-blend-mode:soft-light"/><path d="M282.33,128.65c-.09-.06-.19.07-.11.13S282.41,128.71,282.33,128.65Z" transform="translate(-3)" style="fill:none"/><path d="M280.7,132.43c-.16-.12-.36.12-.2.24S280.86,132.55,280.7,132.43Z" transform="translate(-3)" style="fill:#454c53;mix-blend-mode:soft-light"/><path d="M277.73,136.5c-.12-.09-.26.09-.15.17S277.85,136.58,277.73,136.5Z" transform="translate(-3)" style="fill:#454c53;mix-blend-mode:soft-light"/><path d="M269.67,138.32l0,0c-.09-.05-.16.09-.09.16l0,0C269.66,138.57,269.8,138.39,269.67,138.32Z" transform="translate(-3)" style="fill:#454c53;mix-blend-mode:soft-light"/><path d="M265.74,139.18a.51.51,0,0,0,0-.17c0-.12-.14-.14-.18,0a1,1,0,0,0,0,.17A.09.09,0,0,0,265.74,139.18Z" transform="translate(-3)" style="fill:#454c53;mix-blend-mode:soft-light"/><path d="M266.58,132.16s0,0,0,0,0,0,0,0a.14.14,0,0,0-.06-.07.12.12,0,0,0-.15,0c-.06.1,0,.17.11.17h0C266.55,132.3,266.63,132.22,266.58,132.16Z" transform="translate(-3)" style="fill:#454c53;mix-blend-mode:soft-light"/><path d="M270.31,140.37c-.11-.08-.24.08-.13.16S270.42,140.45,270.31,140.37Z" transform="translate(-3)" style="fill:#454c53;mix-blend-mode:soft-light"/><path d="M286.34,138.56a49.88,49.88,0,0,0-9,3.28c-7.71,3.95-12.62,2.26-15.54-.9-1.9-2.05-1.18-4.38-1.25-5.43-1.09,4.47-.52,8.92,4.51,9.74a30.56,30.56,0,0,0,11.51-.48c3.59-.81,7.88-2,10.67-4.54A1,1,0,0,0,286.34,138.56Z" transform="translate(-3)" style="fill:#454c53;mix-blend-mode:soft-light"/></g><path d="M281.32,120.24c.26-.42.79-1.44,1.3-1.19s1.45,1.13,1.3,1.58a4,4,0,0,1-.73,1.14C282.77,122.34,281.06,120.66,281.32,120.24Z" transform="translate(-3)" style="fill:#9e4f00"/><path d="M282.49,119c-.27.07.11.49.64,1s.68.8.79.63,0-.58-.57-1S282.67,119,282.49,119Z" transform="translate(-3)" style="fill:#6e2031"/><path d="M274.6,118.69c-2.65-1.59-2.91-.27-4.52-.83s-1-1.92-4.06-2.15-6.35,1.74-7.26,6.83,2.91,8.36,6.37,9.57,8.47,1,10.92-3.56S277.26,120.28,274.6,118.69Z" transform="translate(-3)" style="fill:#f23311"/><path d="M277,125.76c-2.33,4.35-7.11,4.53-10.4,3.39s-6.93-4.25-6.07-9.11a10.66,10.66,0,0,1,.89-2.84,9,9,0,0,0-2.69,5.34c-.9,5.1,2.91,8.36,6.37,9.57s8.47,1,10.92-3.56a10.81,10.81,0,0,0,1.16-3.14A2.31,2.31,0,0,1,277,125.76Z" transform="translate(-3)" style="fill:#e63010"/><path d="M266.22,130.88c-3.45-1.2-7.26-4.46-6.36-9.56a10.09,10.09,0,0,1,1.6-4.13,9,9,0,0,0-2.7,5.35c-.9,5.1,2.91,8.36,6.37,9.57,3.19,1.1,7.71,1,10.31-2.59C272.79,131.91,269,131.85,266.22,130.88Z" transform="translate(-3)" style="fill:#d12c0f"/><path d="M270.87,118.08l-.06,0-.06,0-.1,0-.11,0-.1,0a1.87,1.87,0,0,1-1.66-.58l-.11-.13a.71.71,0,0,1-.1-.14,2.75,2.75,0,0,1-.17-.29,3.67,3.67,0,0,1-.21-.61c0-.11-.05-.2-.07-.31l-.06-.29c0-.19-.06-.38-.1-.55s-.09-.34-.14-.49a2.25,2.25,0,0,0-.11-.22,1.37,1.37,0,0,0-.13-.2,2.42,2.42,0,0,0-.28-.34,2.39,2.39,0,0,0-.56-.39.67.67,0,0,0-.18-.08l-.06,0h.07l.19,0a2.6,2.6,0,0,1,.68.26,2.52,2.52,0,0,1,.4.29,1.8,1.8,0,0,1,.2.19c.07.07.13.16.19.22a3.5,3.5,0,0,1,.31.53c.09.18.17.37.25.54l.12.26.12.24a2.4,2.4,0,0,0,.26.39.93.93,0,0,0,.14.14l.06.06h0l.05,0a.7.7,0,0,0,.23.08.56.56,0,0,0,.19,0,.14.14,0,0,0,.07,0h0s0,0,0,0h0l.05,0Z" transform="translate(-3)" style="fill:#5caf00"/><path d="M271,117.06l0,.07v0h0a.16.16,0,0,0,0,.09.37.37,0,0,0,.13.11.85.85,0,0,0,.24.09h.17l.2,0a2.37,2.37,0,0,0,.45-.15l.24-.11.25-.13.53-.28a4,4,0,0,1,.58-.21l.28-.06.28,0a3.79,3.79,0,0,1,.49,0,2.09,2.09,0,0,1,.69.21.74.74,0,0,1,.18.09l.06,0-.07,0-.19,0a2.34,2.34,0,0,0-.68,0,2.47,2.47,0,0,0-.43.08l-.22.08a1.13,1.13,0,0,0-.22.11,2.64,2.64,0,0,0-.42.29c-.14.11-.28.24-.42.37l-.23.19a2.31,2.31,0,0,1-.24.2,3.43,3.43,0,0,1-.55.35,1.66,1.66,0,0,1-.31.12l-.17,0-.16,0a2,2,0,0,1-.69,0,1.78,1.78,0,0,1-1-.56l-.07-.09-.06-.08a.93.93,0,0,1-.05-.1l0-.06,0-.06Z" transform="translate(-3)" style="fill:#5caf00"/><path d="M271.24,118.11h-.32a1.81,1.81,0,0,1-.81-.29,1.61,1.61,0,0,1-.41-.38,2.2,2.2,0,0,1-.15-.26l-.06-.14a.74.74,0,0,1,0-.14,1.81,1.81,0,0,1-.06-.56,2.71,2.71,0,0,1,.09-.51,3.76,3.76,0,0,1,.15-.44l.15-.39c0-.13.08-.24.11-.36a1.92,1.92,0,0,0,.05-.32,1.18,1.18,0,0,0-.07-.5.53.53,0,0,0-.06-.13l0,0,0,0,.1.11a1.53,1.53,0,0,1,.25.5,2,2,0,0,1,.06.38c0,.13,0,.27,0,.41l0,.43a2.8,2.8,0,0,0,0,.41,1.22,1.22,0,0,0,.18.61l0,0h0l0,0,.07,0a.42.42,0,0,0,.15,0,.33.33,0,0,0,.2,0H271Z" transform="translate(-3)" style="fill:#5caf00"/><path d="M270.2,117.09a.68.68,0,0,0,.43.2s1.84-2.92,1.33-4.77c-.06-.22-1-.25-.91,0a4.73,4.73,0,0,1-.07,2.26A13.52,13.52,0,0,1,270.2,117.09Z" transform="translate(-3)" style="fill:#458300"/><path d="M271.84,112.57c0,.06-.16.11-.34.1s-.32-.07-.32-.14.15-.11.34-.1S271.84,112.5,271.84,112.57Z" transform="translate(-3)" style="fill:#2e5800"/><path d="M270.25,117.74a1.89,1.89,0,0,1,.79-1.27,4.2,4.2,0,0,1,1-.5,2.7,2.7,0,0,0,.83-.42,1,1,0,0,0,.41-.82,1.19,1.19,0,0,1-.11,1,3.36,3.36,0,0,1-.74.84,3.11,3.11,0,0,0-.62.66c-.14.22-.15.43-.07.49Z" transform="translate(-3)" style="fill:#5caf00"/><path d="M263.19,102.81c-2.86.34-2.3,1.45-3.81,2s-1.81-.86-4.22.72-3.7,4.89-1.47,9.17,6.89,4.52,10.13,3.44,6.82-4.06,6-8.82S266.06,102.48,263.19,102.81Z" transform="translate(-3)" style="fill:#f23311"/><path d="M269,106.66c.74,4.53-2.68,7.38-5.76,8.4s-7.52.79-9.65-3.28a10.15,10.15,0,0,1-1-2.6,8.37,8.37,0,0,0,1.06,5.47c2.22,4.28,6.89,4.52,10.13,3.44s6.82-4.06,6-8.82a10.14,10.14,0,0,0-.92-3Z" transform="translate(-3)" style="fill:#e63010"/><path d="M263.93,116.57c-3.24,1.08-7.9.83-10.13-3.45a9.49,9.49,0,0,1-1.16-4,8.27,8.27,0,0,0,1.05,5.48c2.22,4.28,6.89,4.52,10.13,3.44,3-1,6.27-3.62,6.14-7.76C269.36,113.6,266.53,115.7,263.93,116.57Z" transform="translate(-3)" style="fill:#d12c0f"/><path d="M260.09,104.48l0,0,0,.06a.56.56,0,0,0,0,.08l-.06.09-.06.08a1.67,1.67,0,0,1-.92.5,1.71,1.71,0,0,1-.64,0l-.15,0-.15,0a2.52,2.52,0,0,1-.29-.12,3.2,3.2,0,0,1-.51-.33l-.22-.19-.21-.18c-.13-.13-.26-.24-.39-.35a2.31,2.31,0,0,0-.38-.28l-.21-.1-.2-.08a2.12,2.12,0,0,0-.41-.08,2.08,2.08,0,0,0-.63,0l-.18,0-.06,0,.06,0,.16-.08a2.36,2.36,0,0,1,.65-.18,2.3,2.3,0,0,1,.46,0l.26,0,.26.06a3.05,3.05,0,0,1,.53.2l.49.26.24.13.22.11a3,3,0,0,0,.42.14l.18,0h.16a.71.71,0,0,0,.22-.07.52.52,0,0,0,.13-.11.28.28,0,0,0,0-.08h0v0l0-.06Z" transform="translate(-3)" style="fill:#5caf00"/><path d="M259.59,103.67l.05,0h0l.08,0a.44.44,0,0,0,.17,0,.79.79,0,0,0,.22-.07l0,0,0,0,.07,0,.13-.13a2.07,2.07,0,0,0,.25-.36l.11-.22.11-.24.24-.5a4.94,4.94,0,0,1,.3-.49l.18-.2a1.62,1.62,0,0,1,.19-.18,1.83,1.83,0,0,1,.38-.26,2.11,2.11,0,0,1,.63-.24l.18,0H263l-.06,0-.16.08a2.28,2.28,0,0,0-.8.67l-.12.18-.1.21a4,4,0,0,0-.14.45c0,.16-.07.33-.1.51l-.06.27-.06.29a3.78,3.78,0,0,1-.21.56,2.54,2.54,0,0,1-.16.28l-.1.13-.1.11a1.82,1.82,0,0,1-.52.38,1.62,1.62,0,0,1-1,.14l-.1,0-.1,0-.09,0-.05,0-.06,0Z" transform="translate(-3)" style="fill:#5caf00"/><path d="M260.38,104.29l0,0-.07.06-.07.05-.06,0a1.58,1.58,0,0,1-.76.25,1.4,1.4,0,0,1-.78-.16l-.11-.06-.12-.08A2.19,2.19,0,0,1,258,104a3,3,0,0,1-.36-.83l-.11-.38c0-.12-.08-.22-.12-.32s-.1-.19-.15-.27a1.14,1.14,0,0,0-.33-.33l-.12-.06-.05,0h.05l.14,0a1.2,1.2,0,0,1,.47.22,2.94,2.94,0,0,1,.26.25,2.43,2.43,0,0,1,.24.3l.23.33c.08.11.15.21.23.3a1,1,0,0,0,.48.34h.18l.13,0a.31.31,0,0,0,.13-.14h0l0,0,0,0Z" transform="translate(-3)" style="fill:#5caf00"/><path d="M259,104.13a.64.64,0,0,0,.44-.1s-.3-3.2-1.73-4.28c-.17-.12-.86.37-.66.53a4.4,4.4,0,0,1,1.23,1.71A12.51,12.51,0,0,1,259,104.13Z" transform="translate(-3)" style="fill:#458300"/><path d="M257.68,99.86s-.05.17-.19.27-.28.13-.32.08.05-.17.19-.27S257.64,99.81,257.68,99.86Z" transform="translate(-3)" style="fill:#2e5800"/><path d="M259.44,104.58a1.74,1.74,0,0,1-.13-1.39,3.82,3.82,0,0,1,.47-1,2.53,2.53,0,0,0,.37-.78,1,1,0,0,0-.16-.84,1.16,1.16,0,0,1,.52.84,3.24,3.24,0,0,1-.07,1,3,3,0,0,0-.09.84c0,.23.14.4.22.4Z" transform="translate(-3)" style="fill:#5caf00"/><path d="M242.82,125.27a.22.22,0,0,1-.13,0,.22.22,0,0,1-.05-.31c1.82-2.6,1.36-6.69,1.36-6.73a.22.22,0,0,1,.44-.06c0,.18.49,4.31-1.43,7.05A.25.25,0,0,1,242.82,125.27Z" transform="translate(-3)" style="fill:#925900"/><path d="M236.58,118.09a.22.22,0,0,1-.2-.12.23.23,0,0,1,.1-.3c3-1.53,7-.49,7.18-.44a.22.22,0,0,1,.16.27.22.22,0,0,1-.28.16s-4-1-6.86.41Z" transform="translate(-3)" style="fill:#925900"/><path d="M248.45,112.84l-.16.53c0,.09,0,.17-.09.28l-.14.39-.16.43c-.06.15-.13.29-.21.45s-.14.31-.22.47l-.27.49-.15.25-.16.25-.34.51c-.25.33-.49.68-.78,1s-.6.64-.9,1a12.94,12.94,0,0,1-1,.84c-.33.27-.69.5-1,.72l-.51.3-.25.15-.26.12-.48.24-.46.19-.43.17-.4.13-.34.11-.3.07-.57.14a.71.71,0,0,1-.42-1.35l.05,0,.48-.18c.07,0,.16-.06.25-.1l.28-.14.33-.16c.11,0,.22-.12.34-.19l.37-.22.38-.25.2-.14.2-.15.39-.31a10.42,10.42,0,0,0,.77-.72c.26-.25.48-.53.72-.8s.44-.57.62-.88.36-.6.52-.88.15-.3.21-.44l.1-.22a1.89,1.89,0,0,0,.09-.21l.16-.41c0-.13.08-.26.12-.39s.08-.24.11-.35l.06-.3.06-.26c0-.09,0-.2.05-.28l.09-.54a1.58,1.58,0,0,1,3.11.51A1.46,1.46,0,0,1,248.45,112.84Z" transform="translate(-3)" style="fill:#925900"/><ellipse cx="240.8" cy="125.85" rx="4.87" ry="4.19" transform="translate(55.33 327.16) rotate(-75.4)" style="fill:#974e9c"/><path d="M242,121.14a3.89,3.89,0,0,0-1.31-.1c3.21.63,3.64,6.15.72,7.54a3,3,0,0,1-4.19-2.29,6.7,6.7,0,0,1,.42-3.42,5.61,5.61,0,0,0-.92,1.92c-.68,2.6.59,5.18,2.83,5.77s4.61-1.06,5.28-3.66S244.26,121.72,242,121.14Z" transform="translate(-3)" style="fill:#963f9b"/><path d="M242,121.14H242a4.93,4.93,0,0,1,2.1,6,4.32,4.32,0,0,1-2.45,2.6,3.65,3.65,0,0,1-4.46-1.82,4.46,4.46,0,0,1-.58-1.92,4.38,4.38,0,0,0,3,4.55c2.24.58,4.61-1.06,5.28-3.66S244.26,121.72,242,121.14Z" transform="translate(-3)" style="fill:#85388a"/><ellipse cx="239.85" cy="124.41" rx="2.87" ry="2.33" transform="matrix(0.25, -0.97, 0.97, 0.25, 56.02, 325.17)" style="fill:#a555ab"/><path d="M240.59,124.1a1.11,1.11,0,1,1-.67-1.58A1.23,1.23,0,0,1,240.59,124.1Z" transform="translate(-3)" style="fill:#b85fbf"/><ellipse cx="227.72" cy="121.83" rx="4.87" ry="4.19" transform="translate(-29.13 74.32) rotate(-17.55)" style="fill:#a957ae"/><path d="M232.36,120.36a3.7,3.7,0,0,0-.62-1.16c1.18,3-3.27,6.35-6,4.62a3,3,0,0,1-.29-4.77,6.67,6.67,0,0,1,3.12-1.46,5.59,5.59,0,0,0-2.12.24c-2.56.81-4.07,3.26-3.37,5.47s3.34,3.34,5.9,2.53S233.05,122.57,232.36,120.36Z" transform="translate(-3)" style="fill:#a847ad"/><path d="M232.36,120.36l0-.06a4.94,4.94,0,0,1-4,5,4.27,4.27,0,0,1-3.5-.69,3.65,3.65,0,0,1-.83-4.74,4.34,4.34,0,0,1,1.32-1.51,4.35,4.35,0,0,0-2.25,5c.7,2.2,3.34,3.34,5.9,2.53S233.05,122.57,232.36,120.36Z" transform="translate(-3)" style="fill:#97409c"/><path d="M229.13,122.48a2.38,2.38,0,1,1,2-3.08A2.64,2.64,0,0,1,229.13,122.48Z" transform="translate(-3)" style="fill:#b75ebd"/><ellipse cx="228.79" cy="119.67" rx="1.33" ry="1.09" transform="translate(-26.67 65.53) rotate(-15.51)" style="fill:#ca68d1"/><ellipse cx="235.18" cy="120.04" rx="4.87" ry="4.19" transform="translate(-27.96 74.81) rotate(-17.18)" style="fill:#a957ae"/><path d="M239.83,118.6a3.44,3.44,0,0,0-.61-1.17c1.16,3.06-3.31,6.33-6,4.58a3,3,0,0,1-.27-4.77,6.72,6.72,0,0,1,3.13-1.44A5.51,5.51,0,0,0,234,116c-2.57.79-4.1,3.23-3.41,5.44s3.31,3.36,5.88,2.57S240.52,120.81,239.83,118.6Z" transform="translate(-3)" style="fill:#a847ad"/><path d="M239.83,118.6s0,0,0-.07a4.94,4.94,0,0,1-4,5,4.31,4.31,0,0,1-3.5-.71,3.65,3.65,0,0,1-.8-4.75,4.26,4.26,0,0,1,1.33-1.5,4.34,4.34,0,0,0-2.28,5c.68,2.21,3.31,3.36,5.88,2.57S240.52,120.81,239.83,118.6Z" transform="translate(-3)" style="fill:#97409c"/><ellipse cx="235.91" cy="118.47" rx="2.87" ry="2.33" transform="translate(-27.47 74.96) rotate(-17.18)" style="fill:#b75ebd"/><path d="M236.56,118.93a1.11,1.11,0,1,1,1-1.39A1.22,1.22,0,0,1,236.56,118.93Z" transform="translate(-3)" style="fill:#ca68d1"/><ellipse cx="228.82" cy="129.02" rx="4.87" ry="4.19" transform="translate(-36.79 122.74) rotate(-28.05)" style="fill:#974e9c"/><path d="M233.11,126.73a3.46,3.46,0,0,0-.82-1c1.72,2.78-2.06,6.84-5,5.63a3,3,0,0,1-1.16-4.63,6.74,6.74,0,0,1,2.8-2,5.61,5.61,0,0,0-2,.63c-2.37,1.26-3.41,3.94-2.32,6s3.89,2.67,6.27,1.41S234.2,128.77,233.11,126.73Z" transform="translate(-3)" style="fill:#963f9b"/><path d="M233.11,126.73l0-.06a5,5,0,0,1-3,5.62,4.31,4.31,0,0,1-3.57,0,3.64,3.64,0,0,1-1.68-4.51,4.26,4.26,0,0,1,1-1.73,4.36,4.36,0,0,0-1.31,5.3c1.09,2,3.89,2.67,6.27,1.41S234.2,128.77,233.11,126.73Z" transform="translate(-3)" style="fill:#85388a"/><path d="M230.33,129.4a2.38,2.38,0,1,1,1.44-3.4A2.64,2.64,0,0,1,230.33,129.4Z" transform="translate(-3)" style="fill:#a555ab"/><path d="M230,127.68a1.11,1.11,0,1,1-1-2,1.11,1.11,0,1,1,1,2Z" transform="translate(-3)" style="fill:#b85fbf"/><ellipse cx="218.73" cy="135.71" rx="4.87" ry="4.19" transform="matrix(1, -0.03, 0.03, 1, -7.21, 7.04)" style="fill:#974e9c"/><path d="M223.59,135.55a3.55,3.55,0,0,0-.28-1.29c.31,3.26-4.86,5.23-7,2.83a3,3,0,0,1,1-4.67,6.67,6.67,0,0,1,3.4-.56,5.58,5.58,0,0,0-2.1-.34c-2.69.08-4.81,2-4.73,4.34s2.31,4.12,5,4S223.67,137.87,223.59,135.55Z" transform="translate(-3)" style="fill:#963f9b"/><path d="M223.59,135.55v-.07a5,5,0,0,1-5.19,3.71,4.26,4.26,0,0,1-3.18-1.61,3.65,3.65,0,0,1,.48-4.79,4.39,4.39,0,0,1,1.68-1.1,4.34,4.34,0,0,0-3.51,4.17c.07,2.32,2.31,4.12,5,4S223.67,137.87,223.59,135.55Z" transform="translate(-3)" style="fill:#85388a"/><ellipse cx="219.84" cy="134.4" rx="2.87" ry="2.33" transform="translate(-7.17 7.07) rotate(-1.83)" style="fill:#a555ab"/><path d="M220.35,135a1.11,1.11,0,1,1,0-2.17,1.11,1.11,0,1,1,0,2.17Z" transform="translate(-3)" style="fill:#b85fbf"/><ellipse cx="210.16" cy="135.38" rx="3.97" ry="4.61" transform="translate(51.89 331.3) rotate(-84.39)" style="fill:#b76acb"/><path d="M214.75,135.83a3.27,3.27,0,0,0-.1-1.25c-.11,3.1-5.22,4.32-7,1.79a2.8,2.8,0,0,1,1.52-4.26,6.43,6.43,0,0,1,3.26-.11,5.24,5.24,0,0,0-1.93-.58c-2.53-.24-4.76,1.32-5,3.51s1.67,4.15,4.21,4.4S214.54,138,214.75,135.83Z" transform="translate(-3)" style="fill:#b357ca"/><path d="M214.75,135.83s0-.05,0-.07a4.68,4.68,0,0,1-5.33,2.85,4.08,4.08,0,0,1-2.8-1.9,3.47,3.47,0,0,1,1-4.45,4.05,4.05,0,0,1,1.72-.82,4.13,4.13,0,0,0-3.82,3.49c-.21,2.18,1.67,4.15,4.21,4.4S214.54,138,214.75,135.83Z" transform="translate(-3)" style="fill:#a450b9"/><ellipse cx="211.37" cy="134.28" rx="2.21" ry="2.72" transform="translate(54.07 331.51) rotate(-84.39)" style="fill:#c472da"/><path d="M211.77,134.92a1.15,1.15,0,0,1-1.11-1.19,1.17,1.17,0,0,1,1.38-.85,1,1,0,1,1-.27,2Z" transform="translate(-3)" style="fill:#d57cee"/><ellipse cx="214.19" cy="130.27" rx="4.87" ry="4.19" transform="translate(-30.92 65.22) rotate(-16.27)" style="fill:#cb68c4"/><path d="M218.86,128.9a3.66,3.66,0,0,0-.6-1.18c1.12,3.08-3.4,6.28-6.09,4.49a3,3,0,0,1-.19-4.77,6.67,6.67,0,0,1,3.15-1.39,5.34,5.34,0,0,0-2.12.19c-2.58.76-4.14,3.17-3.49,5.39s3.26,3.41,5.84,2.66S219.51,131.13,218.86,128.9Z" transform="translate(-3)" style="fill:#ca55c1"/><path d="M218.86,128.9l0-.06a4.94,4.94,0,0,1-4.09,4.88,4.29,4.29,0,0,1-3.49-.77,3.65,3.65,0,0,1-.73-4.76,4.51,4.51,0,0,1,1.36-1.48,4.37,4.37,0,0,0-2.36,4.92c.64,2.22,3.26,3.41,5.84,2.66S219.51,131.13,218.86,128.9Z" transform="translate(-3)" style="fill:#b94eb1"/><ellipse cx="214.94" cy="128.72" rx="2.87" ry="2.33" transform="translate(-30.45 65.37) rotate(-16.27)" style="fill:#da6fd3"/><path d="M215.58,129.19a1.11,1.11,0,1,1-.54-2.11,1.11,1.11,0,1,1,.54,2.11Z" transform="translate(-3)" style="fill:#ee79e7"/><ellipse cx="234.96" cy="125.65" rx="4.87" ry="4.19" transform="translate(-25.59 193.91) rotate(-42.98)" style="fill:#cb68c4"/><path d="M238.52,122.33a3.76,3.76,0,0,0-1.07-.79c2.38,2.25-.22,7.15-3.42,6.75a3,3,0,0,1-2.32-4.18,6.87,6.87,0,0,1,2.19-2.66,5.66,5.66,0,0,0-1.8,1.13c-2,1.83-2.28,4.69-.7,6.39s4.45,1.58,6.41-.25S240.09,124,238.52,122.33Z" transform="translate(-3)" style="fill:#ca55c1"/><path d="M238.52,122.33s0,0-.05,0a5,5,0,0,1-1.47,6.21,4.29,4.29,0,0,1-3.46.88,3.66,3.66,0,0,1-2.79-3.93,4.36,4.36,0,0,1,.55-1.93,4.36,4.36,0,0,0,.1,5.46c1.58,1.69,4.45,1.58,6.41-.25S240.09,124,238.52,122.33Z" transform="translate(-3)" style="fill:#b94eb1"/><ellipse cx="234.93" cy="123.93" rx="2.87" ry="2.33" transform="matrix(0.73, -0.68, 0.68, 0.73, -24.43, 193.42)" style="fill:#da6fd3"/><ellipse cx="235" cy="123.24" rx="1.33" ry="1.09" transform="translate(-26.27 184.15) rotate(-40.94)" style="fill:#ee79e7"/><ellipse cx="235.68" cy="133.36" rx="4.87" ry="4.19" transform="translate(-30.66 196.47) rotate(-42.98)" style="fill:#b76acb"/><path d="M239.24,130.05a3.5,3.5,0,0,0-1.06-.79c2.38,2.25-.22,7.14-3.43,6.74a3,3,0,0,1-2.31-4.17,6.63,6.63,0,0,1,2.19-2.66,5.53,5.53,0,0,0-1.81,1.13c-2,1.83-2.28,4.69-.7,6.38s4.45,1.58,6.42-.25S240.82,131.74,239.24,130.05Z" transform="translate(-3)" style="fill:#b357ca"/><path d="M239.24,130.05s0,0-.05-.05a4.94,4.94,0,0,1-1.46,6.2,4.31,4.31,0,0,1-3.46.88,3.64,3.64,0,0,1-2.79-3.92,4.41,4.41,0,0,1,.54-1.94,4.36,4.36,0,0,0,.1,5.46c1.58,1.69,4.45,1.58,6.42-.25S240.82,131.74,239.24,130.05Z" transform="translate(-3)" style="fill:#a450b9"/><ellipse cx="235.65" cy="131.64" rx="2.87" ry="2.33" transform="translate(-29.49 195.99) rotate(-42.98)" style="fill:#c472da"/><ellipse cx="235.73" cy="130.95" rx="1.33" ry="1.09" transform="translate(-31.15 186.51) rotate(-40.94)" style="fill:#d57cee"/><ellipse cx="221.68" cy="124.82" rx="4.87" ry="4.19" transform="translate(-15.88 26.32) rotate(-6.6)" style="fill:#cb68c4"/><path d="M226.51,124.27a3.62,3.62,0,0,0-.39-1.27c.58,3.22-4.41,5.62-6.76,3.4a3,3,0,0,1,.61-4.73,6.78,6.78,0,0,1,3.35-.85,5.56,5.56,0,0,0-2.13-.16c-2.67.31-4.61,2.42-4.35,4.72s2.65,3.92,5.32,3.61S226.77,126.57,226.51,124.27Z" transform="translate(-3)" style="fill:#ca55c1"/><path d="M226.51,124.27s0,0,0-.07a5,5,0,0,1-4.86,4.13,4.29,4.29,0,0,1-3.31-1.35,3.65,3.65,0,0,1,.08-4.82,4.45,4.45,0,0,1,1.59-1.23,4.37,4.37,0,0,0-3.16,4.45c.27,2.3,2.65,3.92,5.32,3.61S226.77,126.57,226.51,124.27Z" transform="translate(-3)" style="fill:#b94eb1"/><ellipse cx="222.67" cy="123.42" rx="2.87" ry="2.33" transform="translate(-15.71 26.42) rotate(-6.6)" style="fill:#da6fd3"/><path d="M223.23,124a1.11,1.11,0,1,1,1.24-1.18A1.22,1.22,0,0,1,223.23,124Z" transform="translate(-3)" style="fill:#ee79e7"/><ellipse cx="221.2" cy="130.87" rx="4.19" ry="4.87" transform="translate(66.34 338.22) rotate(-84.39)" style="fill:#b76acb"/><path d="M226,131.34a3.45,3.45,0,0,0-.11-1.32c-.11,3.28-5.5,4.56-7.33,1.9a3,3,0,0,1,1.61-4.5,6.78,6.78,0,0,1,3.44-.12,5.58,5.58,0,0,0-2-.61c-2.67-.26-5,1.4-5.25,3.7s1.76,4.39,4.43,4.65S225.82,133.65,226,131.34Z" transform="translate(-3)" style="fill:#b357ca"/><path d="M226,131.34a.17.17,0,0,0,0-.07,5,5,0,0,1-5.63,3,4.27,4.27,0,0,1-2.94-2,3.64,3.64,0,0,1,1.09-4.69,4.37,4.37,0,0,1,1.81-.87,4.36,4.36,0,0,0-4,3.68c-.23,2.3,1.76,4.39,4.43,4.65S225.82,133.65,226,131.34Z" transform="translate(-3)" style="fill:#a450b9"/><path d="M222.25,132a2.38,2.38,0,1,1,3.08-2A2.65,2.65,0,0,1,222.25,132Z" transform="translate(-3)" style="fill:#c472da"/><path d="M222.9,130.38a1.11,1.11,0,1,1,1.45-.9A1.22,1.22,0,0,1,222.9,130.38Z" transform="translate(-3)" style="fill:#d57cee"/><ellipse cx="228.07" cy="135.86" rx="4.87" ry="4.19" transform="translate(-31.93 69.34) rotate(-16.27)" style="fill:#cb68c4"/><path d="M232.74,134.5a3.61,3.61,0,0,0-.6-1.19c1.12,3.08-3.4,6.28-6.09,4.49a3,3,0,0,1-.19-4.77,6.67,6.67,0,0,1,3.15-1.39,5.74,5.74,0,0,0-2.12.19c-2.58.76-4.14,3.17-3.49,5.39s3.26,3.42,5.84,2.66S233.39,136.72,232.74,134.5Z" transform="translate(-3)" style="fill:#ca55c1"/><path d="M232.74,134.5l0-.07a5,5,0,0,1-4.09,4.89,4.33,4.33,0,0,1-3.49-.77,3.67,3.67,0,0,1-.73-4.77,4.51,4.51,0,0,1,1.36-1.48,4.37,4.37,0,0,0-2.36,4.92c.64,2.22,3.26,3.42,5.84,2.66S233.39,136.72,232.74,134.5Z" transform="translate(-3)" style="fill:#b94eb1"/><ellipse cx="228.82" cy="134.31" rx="2.87" ry="2.33" transform="translate(-31.46 69.48) rotate(-16.27)" style="fill:#da6fd3"/><path d="M229.46,134.78a1.11,1.11,0,1,1-.54-2.11,1.11,1.11,0,1,1,.54,2.11Z" transform="translate(-3)" style="fill:#ee79e7"/><path d="M191.06,113.41,189.84,109a5.23,5.23,0,0,0-2.84.42,5,5,0,0,0-2.42,1.48l1.87,4.25,2.86,2.32Z" transform="translate(-3)" style="fill:#db8700"/><path d="M186.45,115.11l4.65-1.81,3.09,6.33a26.63,26.63,0,0,0,20.12,14.65l3.33.48,1.77,4.56-3,1.54a21.42,21.42,0,0,1-22.7-1.74h0A20.81,20.81,0,0,1,185.82,118Z" transform="translate(-3)" style="fill:#ffc700"/><path d="M206.78,135.92a24.76,24.76,0,0,1-10.65-7.08c-4.54-5.29-7.12-14.73-7.12-14.73l2.09-.81,3.09,6.33a26.63,26.63,0,0,0,20.12,14.65l3.33.48.47,1.23A17.68,17.68,0,0,1,206.78,135.92Z" transform="translate(-3)" style="fill:#ffd900"/><path d="M185.82,118l.13-.6a27.28,27.28,0,0,0,7.06,15.8c6.78,7.28,16.94,7.87,25.61,4l.79,2-3,1.54a21.42,21.42,0,0,1-22.7-1.74h0A20.81,20.81,0,0,1,185.82,118Z" transform="translate(-3)" style="fill:#454c53;opacity:0.7000000000000001;mix-blend-mode:overlay"/><path d="M217.62,134.73c1-.41,2.65,4.25,1.79,4.59S216.58,135.13,217.62,134.73Z" transform="translate(-3)" style="fill:#db8700"/><path d="M189.84,109c.09.28-1,.9-2.42,1.43s-2.76.73-2.86.45,1-.93,2.5-1.45S189.74,108.7,189.84,109Z" transform="translate(-3)" style="fill:#c27700"/><rect x="204.03" y="131.69" width="86.95" height="46.85" style="fill:#021323"/><rect x="178.44" y="131.69" width="66.7" height="46.85" style="fill:#f73434"/><path d="M309.37,192.68C335.26,177.91,348,118.12,326.25,114c-14.22-2.72-29.54,61.58-29.54,61.58l-48.43,6.36-1.34,10.75S292.71,202.18,309.37,192.68Z" transform="translate(-3)" style="fill:#ffc8b7"/><path d="M248.28,181.89s-5.42-6.95-10.29-6.47-6.94,2.55-6.94,2.55-12.84-1-12.31,3.25,10.52,12.09,28.2,11.42Z" transform="translate(-3)" style="fill:#ffc8b7"/><path d="M326.25,114c-11.07-1.51-20.56,17.59-29.29,48.81,0,0,17.54,10.22,33.78,12.66C330.74,175.42,349.82,117.18,326.25,114Z" transform="translate(-3)" style="fill:#f4ba14"/><path d="M125.38,48.33C81.71,59,118.41,110,141.77,96.49S146.36,43.2,125.38,48.33Z" transform="translate(-3)" style="fill:#ffc8b7"/><path d="M123.64,84s-6.82-11.13-8.54-3.79S124,90.18,124,90.18Z" transform="translate(-3)" style="fill:#ffc8b7"/><path d="M93.32,287.6s-73-21.15-81.69-17.79S.22,311.22,6.26,314.07s12.52-25.86,12.52-25.86,101,53.1,106.91,20.16Z" transform="translate(-3)" style="fill:#ffc8b7"/><path d="M6.26,314.07c6,2.86,12.52-25.86,12.52-25.86s6.53,3.43,16.34,8c2.19-9.52,3.47-17.44,4.17-22.7-13.24-3-24.55-4.9-27.66-3.7C2.9,273.17.22,311.22,6.26,314.07Z" transform="translate(-3)" style="fill:#1e5ade"/><path d="M15.62,269.47a11.25,11.25,0,0,0-4,.34C2.9,273.16.22,311.22,6.26,314.07c2.76,1.31,5.61-4,7.89-10.1C9.63,294.41,12.78,279.16,15.62,269.47Z" transform="translate(-3)" style="fill:#021323"/><path d="M136.05,140.49c-7.21-7.67,56.45-119.18,56.45-119.18l13.43,5.32S168.45,175,136.05,140.49Z" transform="translate(-3)" style="fill:#ffc8b7"/><path d="M192.5,21.31s-3.93-6-2.94-11.28S191.06-2.54,200,.89s14,11.37,6,25.74Z" transform="translate(-3)" style="fill:#ffc8b7"/><path d="M99.37,216s-1.81,43.31-6.05,80.61l32.37,11.77c7.64-43.25,12.52-92.38,12.52-92.38Z" transform="translate(-3)" style="fill:#ffc8b7"/><path d="M128.69,216s4.71,43.31,3.73,80.61-1.11,99.58-1.11,99.58h15.5s15.15-44.56,19-87.81S167.53,216,167.53,216Z" transform="translate(-3)" style="fill:#ffc8b7"/><path d="M103,195.6s-16.67,10-24.73,87.77c0,0,47.09,36.17,96.64,16.05,0,0,4.56-63.21-9-103.82Z" transform="translate(-3)" style="fill:#1e5ade"/><path d="M131.31,396.18c0,2.86-4.94,16.57,2.48,16.57s31.13.62,34.34-1.23-22-6.58-21.32-15.34Z" transform="translate(-3)" style="fill:#1e5ade"/><path d="M158.3,118.12c-7.77-8.37-52.57-11.8-62,.55s6.79,76.93,6.79,76.93,37.24,11.6,62.89,0C166,195.6,166.06,126.5,158.3,118.12Z" transform="translate(-3)" style="fill:#021323"/><path d="M107.29,115.22c-.61-.76-1.23-1.46-1.85-2.13h0C92.79,89.62,37.54,28.21,37.54,28.21L25.3,35.89S63,109.76,93.51,141.16a257.28,257.28,0,0,0,3.55,26.69C112.08,155,111.19,120,107.29,115.22Z" transform="translate(-3)" style="fill:#ffc8b7"/><path d="M155,404.87l-25.29,1c-.24,3.64.45,6.85,4,6.85,7.42,0,31.13.62,34.34-1.23C170,410.41,161.82,408.28,155,404.87Z" transform="translate(-3)" style="fill:#021323"/><path d="M37.54,28.21s2.78-6.59.84-11.63S34.6,4.5,26.48,9.49,14.77,23.23,25.3,35.89Z" transform="translate(-3)" style="fill:#ffc8b7"/><path d="M149.91,386.29c-6.61,0-13,0-18.57,0,0,6.18,0,9.92,0,9.92h15.5S148.05,392.51,149.91,386.29Z" transform="translate(-3)" style="fill:#1e5ade"/><path d="M153.58,115.22c-4.09-1.78-10-3.15-16.55-3.92L138.27,86,122.72,85l-4.2,25.8c-2.36.17-4.67.42-6.85.79.77,5.48,3.18,13,10.48,16.24,12.14,5.39,26.31,3.37,31,0C155.55,126.16,154.86,120.47,153.58,115.22Z" transform="translate(-3)" style="fill:#ffc8b7"/><path d="M113,50.71S108.74,38.35,96.47,43,85,72.86,89.51,84.59c0,0,14.28,4.15,27.75-7.9C117.26,76.69,116.48,62.31,113,50.71Z" transform="translate(-3)" style="fill:#ee2a7b"/><path d="M112.3,49.55s-8-4.59-12.15,2.46c-5.33,9.13,6,13.16,6,13.16S111.41,61.84,112.3,49.55Z" transform="translate(-3)" style="fill:#ffde17"/><path d="M126.69,49.84C83,60.52,119.72,111.49,143.08,98S147.67,44.71,126.69,49.84Z" transform="translate(-3)" style="fill:#ffc8b7"/><path d="M122.92,42.77C107.05,45,107.3,53.62,107.3,53.62c-5.77,2.93-9.44,8.32-7.73,20.57,2.27,16.32,20.05,25,22.22,22.55,7-7.71-2.83-31.23-2.83-31.23s9,6.66,35.71.46C154.67,66,148.29,39.19,122.92,42.77Z" transform="translate(-3)" style="fill:#ee2a7b"/><path d="M125,85.55s-6.82-11.13-8.54-3.79,8.91,9.93,8.91,9.93Z" transform="translate(-3)" style="fill:#ffc8b7"/></g></svg>