<?xml version="1.0" encoding="utf-8"?>
<!-- Generator: Adobe Illustrator 24.0.2, SVG Export Plug-In . SVG Version: 6.00 Build 0)  -->
<svg version="1.1" id="Camada_1" xmlns="http://www.w3.org/2000/svg" xmlns:xlink="http://www.w3.org/1999/xlink" x="0px" y="0px"
	 viewBox="0 0 256 256" style="enable-background:new 0 0 256 256;" xml:space="preserve">
<style type="text/css">
	.st0{fill:#BFEFE9;}
	.st1{fill:url(#SVGID_1_);}
	.st2{fill:url(#SVGID_2_);}
	.st3{fill:url(#SVGID_3_);}
	.st4{fill:url(#SVGID_4_);}
	.st5{fill:url(#SVGID_5_);}
	.st6{fill:url(#SVGID_6_);}
	.st7{opacity:0.8;fill:url(#SVGID_7_);}
	.st8{opacity:0.8;fill:url(#SVGID_8_);}
	.st9{opacity:0.8;fill:url(#SVGID_9_);}
	.st10{opacity:0.8;fill:url(#SVGID_10_);}
	.st11{opacity:0.8;fill:url(#SVGID_11_);}
	.st12{fill:url(#SVGID_12_);}
	.st13{opacity:0.8;fill:url(#SVGID_13_);}
	.st14{fill:url(#SVGID_14_);}
	.st15{opacity:0.8;fill:url(#SVGID_15_);}
	.st16{fill:url(#SVGID_16_);}
	.st17{opacity:0.8;fill:url(#SVGID_17_);}
	.st18{fill:url(#SVGID_18_);}
	.st19{opacity:0.8;fill:url(#SVGID_19_);}
	.st20{fill:url(#SVGID_20_);}
	.st21{opacity:0.8;fill:url(#SVGID_21_);}
	.st22{fill:url(#SVGID_22_);}
	.st23{opacity:0.8;fill:url(#SVGID_23_);}
	.st24{fill:url(#SVGID_24_);}
	.st25{opacity:0.8;fill:url(#SVGID_25_);}
	.st26{fill:url(#SVGID_26_);}
	.st27{opacity:0.8;fill:url(#SVGID_27_);}
	.st28{fill:url(#SVGID_28_);}
	.st29{opacity:0.8;fill:url(#SVGID_29_);}
	.st30{opacity:0.8;fill:url(#SVGID_30_);}
	.st31{fill:url(#SVGID_31_);}
	.st32{opacity:0.8;fill:url(#SVGID_32_);}
	.st33{opacity:0.8;fill:url(#SVGID_33_);}
	.st34{fill:url(#SVGID_34_);}
	.st35{opacity:0.8;fill:url(#SVGID_35_);}
	.st36{fill:url(#SVGID_36_);}
	.st37{opacity:0.8;fill:url(#SVGID_37_);}
	.st38{fill:#D3A562;}
	.st39{fill:#BC8F53;}
	.st40{fill:#A57C4A;}
	.st41{fill:#C49D72;}
	.st42{fill:#E8EFEE;}
	.st43{fill:#CEDBD8;}
</style>
<g>
	<path class="st0" d="M141.6,210.3L141.6,210.3c-0.3,0.3-0.6,0.5-1,0.8c0,0,0,0,0,0C141,210.8,141.3,210.5,141.6,210.3z"/>
	<path class="st0" d="M144.6,206.1c-0.1,0.3-0.2,0.6-0.3,0.9C144.5,206.7,144.6,206.4,144.6,206.1
		C144.6,206.1,144.6,206.1,144.6,206.1z"/>
	<path class="st0" d="M235.1,164.5c-3.2-21-16.5-39.4-31.9-54.3c-4.9,1.5-10.6,2.6-17.2,3.4c16.3,14.6,35.7,36.5,40.1,60.8
		c7.9,43.7-88.4,54.9-88.4,54.9c2.2-0.3,82-12.6,78.6-49c-1.2-12.9-12.9-24-27.5-32.9c3.3,7.9,5.3,15.3,5.9,22
		c13.7,28.1-14.9,38.3-14.9,38.3c1.7-0.7,11-9.3,11.7-20.8C161,241.4,25.2,236.4,25.2,236.4c19.1,1.9,46.1,3.2,78.1,0
		c44-4.4,96.4-9.6,120.7-32C232.4,194.1,237.6,181,235.1,164.5z"/>
	<path class="st0" d="M161.8,141.1c11.3,4.4,25.1,12.6,32.7,27.9c0.1,0.1,0.1,0.2,0.2,0.4c-0.5-6.7-2.6-14-5.9-22
		c-8.5-5.2-18-9.7-27-13.4V141.1z"/>
	<linearGradient id="SVGID_1_" gradientUnits="userSpaceOnUse" x1="149.8982" y1="114.2672" x2="212.2665" y2="187.8732">
		<stop  offset="0" style="stop-color:#AFE2DB"/>
		<stop  offset="1" style="stop-color:#AFE2DB;stop-opacity:0"/>
	</linearGradient>
	<path class="st1" d="M161.8,141.1c11.3,4.4,25.1,12.6,32.7,27.9c0.1,0.1,0.1,0.2,0.2,0.4c-0.5-6.7-2.6-14-5.9-22
		c-8.5-5.2-18-9.7-27-13.4V141.1z"/>
	<path class="st0" d="M191.5,186.9c0.1-2.2-0.1-4.5-0.7-6.8c-2.6-10-23.8-19.5-37.4-24.7l-9.6,3.7c5.9,3.6,11.6,8.4,16.2,14.9
		c18.1,26-8.9,40.4-8.9,40.4c1.9-1.2,12.8-14.7,6.9-28.9c-3.6-8.6-22.1-14.6-36.2-18l-6,2.3c0,0,91.6,41.3-24.3,56.6l0,0
		c0,0,0,0,0,0c-17.7,3.4-39.8,6.7-66.3,10C25.2,236.4,161,241.4,191.5,186.9z"/>
	<linearGradient id="SVGID_2_" gradientUnits="userSpaceOnUse" x1="79.6063" y1="173.8275" x2="141.9649" y2="247.422">
		<stop  offset="0" style="stop-color:#AFE2DB"/>
		<stop  offset="1" style="stop-color:#AFE2DB;stop-opacity:0"/>
	</linearGradient>
	<path class="st2" d="M191.5,186.9c0.1-2.2-0.1-4.5-0.7-6.8c-2.6-10-23.8-19.5-37.4-24.7l-9.6,3.7c5.9,3.6,11.6,8.4,16.2,14.9
		c18.1,26-8.9,40.4-8.9,40.4c1.9-1.2,12.8-14.7,6.9-28.9c-3.6-8.6-22.1-14.6-36.2-18l-6,2.3c0,0,91.6,41.3-24.3,56.6l0,0
		c0,0,0,0,0,0c-17.7,3.4-39.8,6.7-66.3,10C25.2,236.4,161,241.4,191.5,186.9z"/>
	<linearGradient id="SVGID_3_" gradientUnits="userSpaceOnUse" x1="129.0453" y1="92.897" x2="204.6997" y2="181.66">
		<stop  offset="0" style="stop-color:#FFFFFF"/>
		<stop  offset="1" style="stop-color:#FFFFFF;stop-opacity:0"/>
	</linearGradient>
	<path class="st3" d="M223.9,204.5c0.1-0.1,0.2-0.2,0.3-0.3C224.1,204.2,224,204.3,223.9,204.5C223.9,204.4,223.9,204.4,223.9,204.5
		z"/>
	<linearGradient id="SVGID_4_" gradientUnits="userSpaceOnUse" x1="150.7664" y1="74.3837" x2="226.4209" y2="163.1466">
		<stop  offset="0" style="stop-color:#FFFFFF"/>
		<stop  offset="1" style="stop-color:#FFFFFF;stop-opacity:0"/>
	</linearGradient>
	<path class="st4" d="M237.7,172.9c0,2.2-0.1,4.3-0.4,6.4C237.5,177.2,237.7,175.1,237.7,172.9z"/>
	<path class="st0" d="M235.1,164.5c2.5,16.4-2.6,29.5-11.2,39.8c0.1-0.1,0.2-0.1,0.3-0.2c0.3-0.3,0.6-0.6,0.9-0.9
		c0.5-0.5,1.1-1.1,1.6-1.6c0.2-0.2,0.4-0.4,0.6-0.7c0.6-0.7,1.3-1.5,1.8-2.2c0.2-0.3,0.4-0.5,0.6-0.8c0.5-0.7,1.1-1.5,1.6-2.2
		c0.1-0.1,0.1-0.2,0.2-0.3c0.5-0.9,1.1-1.8,1.5-2.7c0.1-0.2,0.2-0.5,0.4-0.7c0.5-0.9,0.9-1.9,1.3-2.9c0,0,0,0,0,0
		c0.9-2.3,1.6-4.8,2.1-7.3c0.2-0.8,0.3-1.7,0.4-2.6c0.3-2.1,0.4-4.2,0.4-6.4c0,0,0-0.1,0-0.1c0-0.9,0-1.8-0.1-2.7
		c-0.1-1.6-0.2-3.2-0.4-4.8c-0.6-4.8-1.9-9.8-3.7-15c-0.9-2.6-2-5.3-3.2-7.9c-1.8-4-3.9-8.1-6.3-12.2c-1.6-2.7-3.3-5.5-5.2-8.2
		c-1.9-2.7-3.9-5.5-6-8.2c-1.4-1.8-2.9-3.6-4.4-5.4c-1.7,0.6-3.4,1.2-5.3,1.7C218.6,125.1,231.9,143.5,235.1,164.5z"/>
	<linearGradient id="SVGID_5_" gradientUnits="userSpaceOnUse" x1="148.1593" y1="76.6058" x2="223.8136" y2="165.3688">
		<stop  offset="0" style="stop-color:#FFFFFF"/>
		<stop  offset="1" style="stop-color:#FFFFFF;stop-opacity:0"/>
	</linearGradient>
	<path class="st5" d="M235.1,164.5c2.5,16.4-2.6,29.5-11.2,39.8c0.1-0.1,0.2-0.1,0.3-0.2c0.3-0.3,0.6-0.6,0.9-0.9
		c0.5-0.5,1.1-1.1,1.6-1.6c0.2-0.2,0.4-0.4,0.6-0.7c0.6-0.7,1.3-1.5,1.8-2.2c0.2-0.3,0.4-0.5,0.6-0.8c0.5-0.7,1.1-1.5,1.6-2.2
		c0.1-0.1,0.1-0.2,0.2-0.3c0.5-0.9,1.1-1.8,1.5-2.7c0.1-0.2,0.2-0.5,0.4-0.7c0.5-0.9,0.9-1.9,1.3-2.9c0,0,0,0,0,0
		c0.9-2.3,1.6-4.8,2.1-7.3c0.2-0.8,0.3-1.7,0.4-2.6c0.3-2.1,0.4-4.2,0.4-6.4c0,0,0-0.1,0-0.1c0-0.9,0-1.8-0.1-2.7
		c-0.1-1.6-0.2-3.2-0.4-4.8c-0.6-4.8-1.9-9.8-3.7-15c-0.9-2.6-2-5.3-3.2-7.9c-1.8-4-3.9-8.1-6.3-12.2c-1.6-2.7-3.3-5.5-5.2-8.2
		c-1.9-2.7-3.9-5.5-6-8.2c-1.4-1.8-2.9-3.6-4.4-5.4c-1.7,0.6-3.4,1.2-5.3,1.7C218.6,125.1,231.9,143.5,235.1,164.5z"/>
	<path class="st0" d="M230.4,142.5c1.2,2.7,2.2,5.3,3.2,7.9C232.6,147.8,231.6,145.1,230.4,142.5z"/>
	<linearGradient id="SVGID_6_" gradientUnits="userSpaceOnUse" x1="162.2209" y1="64.6209" x2="237.8753" y2="153.3838">
		<stop  offset="0" style="stop-color:#FFFFFF"/>
		<stop  offset="1" style="stop-color:#FFFFFF;stop-opacity:0"/>
	</linearGradient>
	<path class="st6" d="M230.4,142.5c1.2,2.7,2.2,5.3,3.2,7.9C232.6,147.8,231.6,145.1,230.4,142.5z"/>
	<linearGradient id="SVGID_7_" gradientUnits="userSpaceOnUse" x1="100.5241" y1="183.2695" x2="136.8531" y2="210.61">
		<stop  offset="0" style="stop-color:#FFFFFF"/>
		<stop  offset="1" style="stop-color:#FFFFFF;stop-opacity:0"/>
	</linearGradient>
	<path class="st7" d="M139.2,212c-0.2,0.1-0.4,0.2-0.5,0.3c0.1-0.1,0.2-0.1,0.3-0.2C139.1,212.1,139.1,212.1,139.2,212z"/>
	<linearGradient id="SVGID_8_" gradientUnits="userSpaceOnUse" x1="102.5396" y1="180.5914" x2="138.8687" y2="207.9318">
		<stop  offset="0" style="stop-color:#FFFFFF"/>
		<stop  offset="1" style="stop-color:#FFFFFF;stop-opacity:0"/>
	</linearGradient>
	<path class="st8" d="M142,210c-0.1,0.1-0.2,0.2-0.3,0.3c0.1,0,0.1-0.1,0.2-0.1C141.9,210.1,141.9,210,142,210z"/>
	<linearGradient id="SVGID_9_" gradientUnits="userSpaceOnUse" x1="104.9503" y1="177.3881" x2="141.2794" y2="204.7286">
		<stop  offset="0" style="stop-color:#FFFFFF"/>
		<stop  offset="1" style="stop-color:#FFFFFF;stop-opacity:0"/>
	</linearGradient>
	<path class="st9" d="M144.3,207C144.3,207,144.3,207,144.3,207C144.3,207,144.3,207,144.3,207C144.3,207,144.3,207,144.3,207z"/>
	<path class="st0" d="M141.8,210.1c-0.1,0-0.1,0.1-0.2,0.1v0C141.7,210.2,141.8,210.2,141.8,210.1z"/>
	<linearGradient id="SVGID_10_" gradientUnits="userSpaceOnUse" x1="102.4774" y1="180.674" x2="138.8065" y2="208.0145">
		<stop  offset="0" style="stop-color:#FFFFFF"/>
		<stop  offset="1" style="stop-color:#FFFFFF;stop-opacity:0"/>
	</linearGradient>
	<path class="st10" d="M141.8,210.1c-0.1,0-0.1,0.1-0.2,0.1v0C141.7,210.2,141.8,210.2,141.8,210.1z"/>
	<path class="st0" d="M144.7,206c0,0,0,0.1,0,0.1c0,0,0,0,0,0C144.7,206,144.7,206,144.7,206z"/>
	<linearGradient id="SVGID_11_" gradientUnits="userSpaceOnUse" x1="105.55" y1="176.5913" x2="141.8791" y2="203.9317">
		<stop  offset="0" style="stop-color:#FFFFFF"/>
		<stop  offset="1" style="stop-color:#FFFFFF;stop-opacity:0"/>
	</linearGradient>
	<path class="st11" d="M144.7,206c0,0,0,0.1,0,0.1c0,0,0,0,0,0C144.7,206,144.7,206,144.7,206z"/>
	<linearGradient id="SVGID_12_" gradientUnits="userSpaceOnUse" x1="85.2042" y1="169.0842" x2="147.5629" y2="242.6788">
		<stop  offset="0" style="stop-color:#AFE2DB"/>
		<stop  offset="1" style="stop-color:#AFE2DB;stop-opacity:0"/>
	</linearGradient>
	<path class="st12" d="M104.6,184.3c-5-1.3-10.4-2.6-16.4-4C94.2,181.7,99.6,183,104.6,184.3z"/>
	<linearGradient id="SVGID_13_" gradientUnits="userSpaceOnUse" x1="99.492" y1="184.641" x2="135.821" y2="211.9814">
		<stop  offset="0" style="stop-color:#FFFFFF"/>
		<stop  offset="1" style="stop-color:#FFFFFF;stop-opacity:0"/>
	</linearGradient>
	<path class="st13" d="M104.6,184.3c-5-1.3-10.4-2.6-16.4-4C94.2,181.7,99.6,183,104.6,184.3z"/>
	<path class="st0" d="M91.5,226.4c116-15.3,24.4-56.6,24.3-56.6l-27.6,10.6c5.9,1.3,11.4,2.7,16.4,4c4,1.1,7.7,2.1,11.1,3.1
		c0.8,0.3,1.7,0.5,2.5,0.8c1.6,0.5,3.2,1,4.6,1.6c5.9,2.1,10.6,4.1,14.1,6.1c0.9,0.5,1.7,1,2.4,1.5c0.4,0.3,0.7,0.5,1,0.8
		c0.7,0.5,1.2,1,1.8,1.5c0.3,0.2,0.5,0.5,0.7,0.7c0.4,0.5,0.8,1,1.1,1.5c0.4,0.7,0.7,1.5,0.8,2.2c0,0.2,0,0.5,0,0.7
		c0,0.3-0.1,0.6-0.1,0.9c0,0,0,0.1,0,0.1c0,0,0,0.1,0,0.1c-0.1,0.3-0.2,0.6-0.3,0.9c0,0,0,0,0,0c0,0,0,0,0,0
		c-0.1,0.3-0.3,0.6-0.5,0.9c-0.1,0.1-0.1,0.2-0.2,0.3c-0.2,0.3-0.4,0.6-0.7,0.9c0,0-0.1,0.1-0.1,0.1c-0.3,0.3-0.5,0.5-0.8,0.8
		c-0.1,0-0.1,0.1-0.2,0.1c-0.1,0-0.1,0.1-0.2,0.1c-0.3,0.3-0.6,0.5-1,0.8c0,0,0,0,0,0c-0.1,0.1-0.2,0.2-0.4,0.3
		c-0.3,0.2-0.7,0.5-1.1,0.7c-0.1,0.1-0.2,0.1-0.3,0.2c-0.1,0.1-0.2,0.1-0.3,0.2c-0.4,0.2-0.7,0.4-1.1,0.6c-0.3,0.1-0.5,0.3-0.8,0.4
		c-0.4,0.2-0.8,0.4-1.2,0.6c-0.3,0.1-0.5,0.3-0.8,0.4c-0.4,0.2-0.8,0.3-1.1,0.5c-0.5,0.2-0.9,0.4-1.4,0.6c-0.4,0.2-0.7,0.3-1.1,0.5
		c-0.4,0.2-0.8,0.3-1.2,0.5c-0.4,0.1-0.7,0.3-1.1,0.4c-0.7,0.3-1.4,0.5-2.2,0.8c-0.3,0.1-0.7,0.2-1,0.3c-0.5,0.2-1,0.3-1.6,0.5
		c-0.3,0.1-0.6,0.2-0.9,0.3c-1,0.3-2.1,0.6-3.1,0.9c-0.3,0.1-0.5,0.1-0.8,0.2c-0.7,0.2-1.3,0.4-2,0.6c-0.2,0.1-0.4,0.1-0.6,0.2
		c-1.3,0.4-2.7,0.7-4.1,1.1c-0.2,0-0.3,0.1-0.5,0.1c-0.8,0.2-1.6,0.4-2.4,0.6c-0.1,0-0.2,0.1-0.4,0.1c-1.7,0.4-3.4,0.8-5.2,1.2
		c-0.1,0-0.2,0-0.2,0.1c-0.9,0.2-1.9,0.4-2.9,0.6c0,0-0.1,0-0.1,0c-1.9,0.4-4,0.8-6,1.2c0,0-0.1,0-0.1,0
		C93.7,226,92.6,226.2,91.5,226.4C91.5,226.4,91.5,226.4,91.5,226.4L91.5,226.4z"/>
	<linearGradient id="SVGID_14_" gradientUnits="userSpaceOnUse" x1="85.2562" y1="169.0401" x2="147.6149" y2="242.6347">
		<stop  offset="0" style="stop-color:#AFE2DB"/>
		<stop  offset="1" style="stop-color:#AFE2DB;stop-opacity:0"/>
	</linearGradient>
	<path class="st14" d="M91.5,226.4c116-15.3,24.4-56.6,24.3-56.6l-27.6,10.6c5.9,1.3,11.4,2.7,16.4,4c4,1.1,7.7,2.1,11.1,3.1
		c0.8,0.3,1.7,0.5,2.5,0.8c1.6,0.5,3.2,1,4.6,1.6c5.9,2.1,10.6,4.1,14.1,6.1c0.9,0.5,1.7,1,2.4,1.5c0.4,0.3,0.7,0.5,1,0.8
		c0.7,0.5,1.2,1,1.8,1.5c0.3,0.2,0.5,0.5,0.7,0.7c0.4,0.5,0.8,1,1.1,1.5c0.4,0.7,0.7,1.5,0.8,2.2c0,0.2,0,0.5,0,0.7
		c0,0.3-0.1,0.6-0.1,0.9c0,0,0,0.1,0,0.1c0,0,0,0.1,0,0.1c-0.1,0.3-0.2,0.6-0.3,0.9c0,0,0,0,0,0c0,0,0,0,0,0
		c-0.1,0.3-0.3,0.6-0.5,0.9c-0.1,0.1-0.1,0.2-0.2,0.3c-0.2,0.3-0.4,0.6-0.7,0.9c0,0-0.1,0.1-0.1,0.1c-0.3,0.3-0.5,0.5-0.8,0.8
		c-0.1,0-0.1,0.1-0.2,0.1c-0.1,0-0.1,0.1-0.2,0.1c-0.3,0.3-0.6,0.5-1,0.8c0,0,0,0,0,0c-0.1,0.1-0.2,0.2-0.4,0.3
		c-0.3,0.2-0.7,0.5-1.1,0.7c-0.1,0.1-0.2,0.1-0.3,0.2c-0.1,0.1-0.2,0.1-0.3,0.2c-0.4,0.2-0.7,0.4-1.1,0.6c-0.3,0.1-0.5,0.3-0.8,0.4
		c-0.4,0.2-0.8,0.4-1.2,0.6c-0.3,0.1-0.5,0.3-0.8,0.4c-0.4,0.2-0.8,0.3-1.1,0.5c-0.5,0.2-0.9,0.4-1.4,0.6c-0.4,0.2-0.7,0.3-1.1,0.5
		c-0.4,0.2-0.8,0.3-1.2,0.5c-0.4,0.1-0.7,0.3-1.1,0.4c-0.7,0.3-1.4,0.5-2.2,0.8c-0.3,0.1-0.7,0.2-1,0.3c-0.5,0.2-1,0.3-1.6,0.5
		c-0.3,0.1-0.6,0.2-0.9,0.3c-1,0.3-2.1,0.6-3.1,0.9c-0.3,0.1-0.5,0.1-0.8,0.2c-0.7,0.2-1.3,0.4-2,0.6c-0.2,0.1-0.4,0.1-0.6,0.2
		c-1.3,0.4-2.7,0.7-4.1,1.1c-0.2,0-0.3,0.1-0.5,0.1c-0.8,0.2-1.6,0.4-2.4,0.6c-0.1,0-0.2,0.1-0.4,0.1c-1.7,0.4-3.4,0.8-5.2,1.2
		c-0.1,0-0.2,0-0.2,0.1c-0.9,0.2-1.9,0.4-2.9,0.6c0,0-0.1,0-0.1,0c-1.9,0.4-4,0.8-6,1.2c0,0-0.1,0-0.1,0
		C93.7,226,92.6,226.2,91.5,226.4C91.5,226.4,91.5,226.4,91.5,226.4L91.5,226.4z"/>
	<linearGradient id="SVGID_15_" gradientUnits="userSpaceOnUse" x1="95.3584" y1="190.1335" x2="131.6875" y2="217.4739">
		<stop  offset="0" style="stop-color:#FFFFFF"/>
		<stop  offset="1" style="stop-color:#FFFFFF;stop-opacity:0"/>
	</linearGradient>
	<path class="st15" d="M91.5,226.4c116-15.3,24.4-56.6,24.3-56.6l-27.6,10.6c5.9,1.3,11.4,2.7,16.4,4c4,1.1,7.7,2.1,11.1,3.1
		c0.8,0.3,1.7,0.5,2.5,0.8c1.6,0.5,3.2,1,4.6,1.6c5.9,2.1,10.6,4.1,14.1,6.1c0.9,0.5,1.7,1,2.4,1.5c0.4,0.3,0.7,0.5,1,0.8
		c0.7,0.5,1.2,1,1.8,1.5c0.3,0.2,0.5,0.5,0.7,0.7c0.4,0.5,0.8,1,1.1,1.5c0.4,0.7,0.7,1.5,0.8,2.2c0,0.2,0,0.5,0,0.7
		c0,0.3-0.1,0.6-0.1,0.9c0,0,0,0.1,0,0.1c0,0,0,0.1,0,0.1c-0.1,0.3-0.2,0.6-0.3,0.9c0,0,0,0,0,0c0,0,0,0,0,0
		c-0.1,0.3-0.3,0.6-0.5,0.9c-0.1,0.1-0.1,0.2-0.2,0.3c-0.2,0.3-0.4,0.6-0.7,0.9c0,0-0.1,0.1-0.1,0.1c-0.3,0.3-0.5,0.5-0.8,0.8
		c-0.1,0-0.1,0.1-0.2,0.1c-0.1,0-0.1,0.1-0.2,0.1c-0.3,0.3-0.6,0.5-1,0.8c0,0,0,0,0,0c-0.1,0.1-0.2,0.2-0.4,0.3
		c-0.3,0.2-0.7,0.5-1.1,0.7c-0.1,0.1-0.2,0.1-0.3,0.2c-0.1,0.1-0.2,0.1-0.3,0.2c-0.4,0.2-0.7,0.4-1.1,0.6c-0.3,0.1-0.5,0.3-0.8,0.4
		c-0.4,0.2-0.8,0.4-1.2,0.6c-0.3,0.1-0.5,0.3-0.8,0.4c-0.4,0.2-0.8,0.3-1.1,0.5c-0.5,0.2-0.9,0.4-1.4,0.6c-0.4,0.2-0.7,0.3-1.1,0.5
		c-0.4,0.2-0.8,0.3-1.2,0.5c-0.4,0.1-0.7,0.3-1.1,0.4c-0.7,0.3-1.4,0.5-2.2,0.8c-0.3,0.1-0.7,0.2-1,0.3c-0.5,0.2-1,0.3-1.6,0.5
		c-0.3,0.1-0.6,0.2-0.9,0.3c-1,0.3-2.1,0.6-3.1,0.9c-0.3,0.1-0.5,0.1-0.8,0.2c-0.7,0.2-1.3,0.4-2,0.6c-0.2,0.1-0.4,0.1-0.6,0.2
		c-1.3,0.4-2.7,0.7-4.1,1.1c-0.2,0-0.3,0.1-0.5,0.1c-0.8,0.2-1.6,0.4-2.4,0.6c-0.1,0-0.2,0.1-0.4,0.1c-1.7,0.4-3.4,0.8-5.2,1.2
		c-0.1,0-0.2,0-0.2,0.1c-0.9,0.2-1.9,0.4-2.9,0.6c0,0-0.1,0-0.1,0c-1.9,0.4-4,0.8-6,1.2c0,0-0.1,0-0.1,0
		C93.7,226,92.6,226.2,91.5,226.4C91.5,226.4,91.5,226.4,91.5,226.4L91.5,226.4z"/>
	<path class="st0" d="M144.8,204.9c0,0.3-0.1,0.6-0.1,0.9c0,0,0,0,0,0C144.8,205.5,144.8,205.2,144.8,204.9z"/>
	<linearGradient id="SVGID_16_" gradientUnits="userSpaceOnUse" x1="101.9739" y1="154.8747" x2="164.3326" y2="228.4693">
		<stop  offset="0" style="stop-color:#AFE2DB"/>
		<stop  offset="1" style="stop-color:#AFE2DB;stop-opacity:0"/>
	</linearGradient>
	<path class="st16" d="M144.8,204.9c0,0.3-0.1,0.6-0.1,0.9c0,0,0,0,0,0C144.8,205.5,144.8,205.2,144.8,204.9z"/>
	<linearGradient id="SVGID_17_" gradientUnits="userSpaceOnUse" x1="105.8994" y1="176.1269" x2="142.2285" y2="203.4674">
		<stop  offset="0" style="stop-color:#FFFFFF"/>
		<stop  offset="1" style="stop-color:#FFFFFF;stop-opacity:0"/>
	</linearGradient>
	<path class="st17" d="M144.8,204.9c0,0.3-0.1,0.6-0.1,0.9c0,0,0,0,0,0C144.8,205.5,144.8,205.2,144.8,204.9z"/>
	<path class="st0" d="M140.3,211.3C140.3,211.3,140.3,211.3,140.3,211.3c-0.3,0.2-0.7,0.5-1.1,0.7v0
		C139.6,211.8,140,211.5,140.3,211.3z"/>
	<linearGradient id="SVGID_18_" gradientUnits="userSpaceOnUse" x1="95.9682" y1="159.9635" x2="158.3269" y2="233.5581">
		<stop  offset="0" style="stop-color:#AFE2DB"/>
		<stop  offset="1" style="stop-color:#AFE2DB;stop-opacity:0"/>
	</linearGradient>
	<path class="st18" d="M140.3,211.3C140.3,211.3,140.3,211.3,140.3,211.3c-0.3,0.2-0.7,0.5-1.1,0.7v0
		C139.6,211.8,140,211.5,140.3,211.3z"/>
	<linearGradient id="SVGID_19_" gradientUnits="userSpaceOnUse" x1="101.0742" y1="182.5386" x2="137.4032" y2="209.879">
		<stop  offset="0" style="stop-color:#FFFFFF"/>
		<stop  offset="1" style="stop-color:#FFFFFF;stop-opacity:0"/>
	</linearGradient>
	<path class="st19" d="M140.3,211.3C140.3,211.3,140.3,211.3,140.3,211.3c-0.3,0.2-0.7,0.5-1.1,0.7v0
		C139.6,211.8,140,211.5,140.3,211.3z"/>
	<path class="st0" d="M144.7,205.8c0,0,0,0.1,0,0.1C144.7,205.9,144.7,205.9,144.7,205.8C144.7,205.8,144.7,205.8,144.7,205.8z"/>
	<linearGradient id="SVGID_20_" gradientUnits="userSpaceOnUse" x1="101.6681" y1="155.1339" x2="164.0267" y2="228.7285">
		<stop  offset="0" style="stop-color:#AFE2DB"/>
		<stop  offset="1" style="stop-color:#AFE2DB;stop-opacity:0"/>
	</linearGradient>
	<path class="st20" d="M144.7,205.8c0,0,0,0.1,0,0.1C144.7,205.9,144.7,205.9,144.7,205.8C144.7,205.8,144.7,205.8,144.7,205.8z"/>
	<linearGradient id="SVGID_21_" gradientUnits="userSpaceOnUse" x1="105.6171" y1="176.5021" x2="141.9462" y2="203.8425">
		<stop  offset="0" style="stop-color:#FFFFFF"/>
		<stop  offset="1" style="stop-color:#FFFFFF;stop-opacity:0"/>
	</linearGradient>
	<path class="st21" d="M144.7,205.8c0,0,0,0.1,0,0.1C144.7,205.9,144.7,205.9,144.7,205.8C144.7,205.8,144.7,205.8,144.7,205.8z"/>
	<path class="st0" d="M140.7,211C140.7,211,140.7,211,140.7,211c-0.1,0.1-0.2,0.2-0.4,0.3c0,0,0,0,0,0
		C140.4,211.2,140.6,211.1,140.7,211z"/>
	<linearGradient id="SVGID_22_" gradientUnits="userSpaceOnUse" x1="96.626" y1="159.4062" x2="158.9847" y2="233.0007">
		<stop  offset="0" style="stop-color:#AFE2DB"/>
		<stop  offset="1" style="stop-color:#AFE2DB;stop-opacity:0"/>
	</linearGradient>
	<path class="st22" d="M140.7,211C140.7,211,140.7,211,140.7,211c-0.1,0.1-0.2,0.2-0.4,0.3c0,0,0,0,0,0
		C140.4,211.2,140.6,211.1,140.7,211z"/>
	<linearGradient id="SVGID_23_" gradientUnits="userSpaceOnUse" x1="101.568" y1="181.8824" x2="137.897" y2="209.2229">
		<stop  offset="0" style="stop-color:#FFFFFF"/>
		<stop  offset="1" style="stop-color:#FFFFFF;stop-opacity:0"/>
	</linearGradient>
	<path class="st23" d="M140.7,211C140.7,211,140.7,211,140.7,211c-0.1,0.1-0.2,0.2-0.4,0.3c0,0,0,0,0,0
		C140.4,211.2,140.6,211.1,140.7,211z"/>
	<polygon class="st0" points="140.7,211 140.7,211 140.7,211 	"/>
	<linearGradient id="SVGID_24_" gradientUnits="userSpaceOnUse" x1="140.2065" y1="210.4996" x2="141.1331" y2="211.5932">
		<stop  offset="0" style="stop-color:#AFE2DB"/>
		<stop  offset="1" style="stop-color:#AFE2DB;stop-opacity:0"/>
	</linearGradient>
	<polygon class="st24" points="140.7,211 140.7,211 140.7,211 	"/>
	<linearGradient id="SVGID_25_" gradientUnits="userSpaceOnUse" x1="137.7033" y1="208.8139" x2="143.6357" y2="213.2784">
		<stop  offset="0" style="stop-color:#FFFFFF"/>
		<stop  offset="1" style="stop-color:#FFFFFF;stop-opacity:0"/>
	</linearGradient>
	<polygon class="st25" points="140.7,211 140.7,211 140.7,211 	"/>
	<polygon class="st0" points="139.2,212 139.2,212 139.2,212 	"/>
	<linearGradient id="SVGID_26_" gradientUnits="userSpaceOnUse" x1="138.4725" y1="211.1267" x2="139.9985" y2="212.9277">
		<stop  offset="0" style="stop-color:#AFE2DB"/>
		<stop  offset="1" style="stop-color:#AFE2DB;stop-opacity:0"/>
	</linearGradient>
	<polygon class="st26" points="139.2,212 139.2,212 139.2,212 	"/>
	<linearGradient id="SVGID_27_" gradientUnits="userSpaceOnUse" x1="136.6786" y1="210.103" x2="141.792" y2="213.9511">
		<stop  offset="0" style="stop-color:#FFFFFF"/>
		<stop  offset="1" style="stop-color:#FFFFFF;stop-opacity:0"/>
	</linearGradient>
	<polygon class="st27" points="139.2,212 139.2,212 139.2,212 	"/>
	<path class="st0" d="M139.2,212C139.2,212,139.2,212,139.2,212c-0.1,0.1-0.2,0.1-0.3,0.2C139.1,212.1,139.1,212.1,139.2,212z"/>
	<linearGradient id="SVGID_28_" gradientUnits="userSpaceOnUse" x1="95.3609" y1="160.4782" x2="157.7195" y2="234.0728">
		<stop  offset="0" style="stop-color:#AFE2DB"/>
		<stop  offset="1" style="stop-color:#AFE2DB;stop-opacity:0"/>
	</linearGradient>
	<path class="st28" d="M139.2,212C139.2,212,139.2,212,139.2,212c-0.1,0.1-0.2,0.1-0.3,0.2C139.1,212.1,139.1,212.1,139.2,212z"/>
	<linearGradient id="SVGID_29_" gradientUnits="userSpaceOnUse" x1="100.6192" y1="183.1431" x2="136.9483" y2="210.4836">
		<stop  offset="0" style="stop-color:#FFFFFF"/>
		<stop  offset="1" style="stop-color:#FFFFFF;stop-opacity:0"/>
	</linearGradient>
	<path class="st29" d="M139.2,212C139.2,212,139.2,212,139.2,212c-0.1,0.1-0.2,0.1-0.3,0.2C139.1,212.1,139.1,212.1,139.2,212z"/>
	<path class="st0" d="M188.9,147.4c14.6,8.9,26.3,20,27.5,32.9c3.4,36.4-76.4,48.8-78.6,49c0,0,96.2-11.2,88.4-54.9
		c-4.4-24.3-23.7-46.1-40.1-60.8c-4.6,0.6-9.6,0.9-15,1C178.5,126.2,184.7,137.2,188.9,147.4z"/>
	<linearGradient id="SVGID_30_" gradientUnits="userSpaceOnUse" x1="125.5543" y1="120.5339" x2="228.1748" y2="256.4872">
		<stop  offset="0" style="stop-color:#FFFFFF"/>
		<stop  offset="1" style="stop-color:#FFFFFF;stop-opacity:0"/>
	</linearGradient>
	<path class="st30" d="M188.9,147.4c14.6,8.9,26.3,20,27.5,32.9c3.4,36.4-76.4,48.8-78.6,49c0,0,96.2-11.2,88.4-54.9
		c-4.4-24.3-23.7-46.1-40.1-60.8c-4.6,0.6-9.6,0.9-15,1C178.5,126.2,184.7,137.2,188.9,147.4z"/>
	<path class="st0" d="M161.8,114.7V134c9,3.7,18.5,8.2,27,13.4c-4.2-10.2-10.4-21.3-17.9-32.7C168.1,114.8,165,114.8,161.8,114.7z"
		/>
	<linearGradient id="SVGID_31_" gradientUnits="userSpaceOnUse" x1="154.5228" y1="110.3487" x2="216.8814" y2="183.9433">
		<stop  offset="0" style="stop-color:#AFE2DB"/>
		<stop  offset="1" style="stop-color:#AFE2DB;stop-opacity:0"/>
	</linearGradient>
	<path class="st31" d="M161.8,114.7V134c9,3.7,18.5,8.2,27,13.4c-4.2-10.2-10.4-21.3-17.9-32.7C168.1,114.8,165,114.8,161.8,114.7z"
		/>
	<linearGradient id="SVGID_32_" gradientUnits="userSpaceOnUse" x1="149.7319" y1="102.284" x2="252.3525" y2="238.2374">
		<stop  offset="0" style="stop-color:#FFFFFF"/>
		<stop  offset="1" style="stop-color:#FFFFFF;stop-opacity:0"/>
	</linearGradient>
	<path class="st32" d="M161.8,114.7V134c9,3.7,18.5,8.2,27,13.4c-4.2-10.2-10.4-21.3-17.9-32.7C168.1,114.8,165,114.8,161.8,114.7z"
		/>
	<path class="st0" d="M191.5,186.9c-0.7,11.6-10,20.1-11.7,20.8c0,0,28.6-10.3,14.9-38.3C195.3,176,194.3,182,191.5,186.9z"/>
	
		<linearGradient id="SVGID_33_" gradientUnits="userSpaceOnUse" x1="155.7103" y1="156.7604" x2="206.6448" y2="199.0809" gradientTransform="matrix(0.9922 0.1248 -0.1248 0.9922 19.1759 -21.8533)">
		<stop  offset="0" style="stop-color:#FFFFFF"/>
		<stop  offset="1" style="stop-color:#FFFFFF;stop-opacity:0"/>
	</linearGradient>
	<path class="st33" d="M191.5,186.9c-0.7,11.6-10,20.1-11.7,20.8c0,0,28.6-10.3,14.9-38.3C195.3,176,194.3,182,191.5,186.9z"/>
	<path class="st0" d="M161.8,141.1v11.1l-8.4,3.2c13.6,5.2,34.9,14.7,37.4,24.7c0.6,2.4,0.8,4.6,0.7,6.8c2.8-5,3.7-10.9,3.2-17.5
		c-0.1-0.1-0.1-0.2-0.2-0.4C186.9,153.7,173.1,145.5,161.8,141.1z"/>
	<linearGradient id="SVGID_34_" gradientUnits="userSpaceOnUse" x1="140.8205" y1="121.959" x2="203.1792" y2="195.5536">
		<stop  offset="0" style="stop-color:#AFE2DB"/>
		<stop  offset="1" style="stop-color:#AFE2DB;stop-opacity:0"/>
	</linearGradient>
	<path class="st34" d="M161.8,141.1v11.1l-8.4,3.2c13.6,5.2,34.9,14.7,37.4,24.7c0.6,2.4,0.8,4.6,0.7,6.8c2.8-5,3.7-10.9,3.2-17.5
		c-0.1-0.1-0.1-0.2-0.2-0.4C186.9,153.7,173.1,145.5,161.8,141.1z"/>
	
		<linearGradient id="SVGID_35_" gradientUnits="userSpaceOnUse" x1="161.6811" y1="149.5743" x2="212.6156" y2="191.8949" gradientTransform="matrix(0.9922 0.1248 -0.1248 0.9922 19.1759 -21.8533)">
		<stop  offset="0" style="stop-color:#FFFFFF"/>
		<stop  offset="1" style="stop-color:#FFFFFF;stop-opacity:0"/>
	</linearGradient>
	<path class="st35" d="M161.8,141.1v11.1l-8.4,3.2c13.6,5.2,34.9,14.7,37.4,24.7c0.6,2.4,0.8,4.6,0.7,6.8c2.8-5,3.7-10.9,3.2-17.5
		c-0.1-0.1-0.1-0.2-0.2-0.4C186.9,153.7,173.1,145.5,161.8,141.1z"/>
	<path class="st0" d="M131.2,163.9l-9.4,3.6c14,3.4,32.6,9.4,36.2,18c5.9,14.2-5,27.8-6.9,28.9c0,0,27-14.4,8.9-40.4
		c-4.6-6.5-10.2-11.4-16.2-14.9l-11.4,4.4L131.2,163.9z"/>
	<linearGradient id="SVGID_36_" gradientUnits="userSpaceOnUse" x1="113.8436" y1="144.8173" x2="176.2022" y2="218.4118">
		<stop  offset="0" style="stop-color:#AFE2DB"/>
		<stop  offset="1" style="stop-color:#AFE2DB;stop-opacity:0"/>
	</linearGradient>
	<path class="st36" d="M131.2,163.9l-9.4,3.6c14,3.4,32.6,9.4,36.2,18c5.9,14.2-5,27.8-6.9,28.9c0,0,27-14.4,8.9-40.4
		c-4.6-6.5-10.2-11.4-16.2-14.9l-11.4,4.4L131.2,163.9z"/>
	
		<linearGradient id="SVGID_37_" gradientUnits="userSpaceOnUse" x1="119.0714" y1="165.0371" x2="170.0065" y2="207.3582" gradientTransform="matrix(0.9998 -2.060000e-02 2.060000e-02 0.9998 -4.0711 0.7032)">
		<stop  offset="0" style="stop-color:#FFFFFF"/>
		<stop  offset="1" style="stop-color:#FFFFFF;stop-opacity:0"/>
	</linearGradient>
	<path class="st37" d="M131.2,163.9l-9.4,3.6c14,3.4,32.6,9.4,36.2,18c5.9,14.2-5,27.8-6.9,28.9c0,0,27-14.4,8.9-40.4
		c-4.6-6.5-10.2-11.4-16.2-14.9l-11.4,4.4L131.2,163.9z"/>
	<polygon class="st38" points="81.9,20.5 2,66.7 2,152.2 81.9,115 	"/>
	<path class="st39" d="M119.3,132.4l13-20.1c-1.5-0.2-3.1-0.4-4.7-0.7c-4.8-0.7-9.1-3.5-11.7-7.6c-8.2-12.7-21.7-41.2,5.8-60.6
		l-39.7-23V115L119.3,132.4z"/>
	<polygon class="st39" points="126,122 132.3,112.3 132.3,112.3 119.3,132.4 126,122 	"/>
	<path class="st39" d="M144,135.9c0.6,0.4,8.3,1.5,17.8,5.2V134c-19.1-7.8-35.8-12-35.8-12l-6.7,10.4l23.7,11.1L144,135.9z"/>
	<path class="st39" d="M132.3,112.3L126,122l11.9-9C136.1,112.7,134.2,112.5,132.3,112.3z"/>
	<path class="st39" d="M126,122L126,122c0,0,16.7,4.2,35.8,12v-19.3c-7.2-0.2-15.2-0.7-23.9-1.7L126,122z"/>
	<path class="st39" d="M143,143.5l18.8,8.8v-11.1c-9.6-3.7-17.3-4.8-17.8-5.2L143,143.5z"/>
	<path class="st40" d="M105.2,148.6c0.2,0.1,1.5,0.2,3.4,0.4l10.7-16.5L81.9,115L2,152.2l86.3,28.1l17-26.3L105.2,148.6z"/>
	<polygon class="st40" points="105.3,154.1 105.3,154.1 88.3,180.3 91.1,175.9 	"/>
	<path class="st40" d="M105.3,154.1l-14.1,21.9l3.4-5.2l21.4-0.9l6-2.3c-9.1-2.2-16.3-3.3-16.3-3.3L105.3,154.1z"/>
	<path class="st40" d="M143,143.5l-23.7-11.1l-10.7,16.5c6.6,0.5,21.6,2,35.2,10.2l9.6-3.7c-6.6-2.5-11.4-4-11.4-4L143,143.5z"/>
	<polygon class="st40" points="94.5,170.7 91.1,175.9 88.3,180.3 115.9,169.8 	"/>
	<path class="st40" d="M143,143.5l-1,8c0,0,4.8,1.5,11.4,4l8.4-3.2L143,143.5z"/>
	<path class="st40" d="M105.2,148.6l0.1,5.5l3.3-5.1C106.6,148.8,105.4,148.7,105.2,148.6z"/>
	<polygon class="st40" points="105.3,154.1 105.3,154.1 108.6,148.9 	"/>
	<path class="st40" d="M105.3,154.1l0.2,10.1c0,0,7.2,1.1,16.3,3.3l9.4-3.6l-5.3,2c1.9-0.9,3.9-1.9,5.8-2.8l0.8,0.3l11.4-4.4
		c-13.6-8.1-28.6-9.6-35.2-10.2L105.3,154.1z"/>
	<path class="st41" d="M131.6,163.1c-1.9,0.9-3.8,1.9-5.8,2.8l5.3-2l1.2-0.5L131.6,163.1z"/>
	<path class="st42" d="M237.1,50.2c0,0-8,4.9-15.6,4.4c0,0,29.4-16.3,31.5-36.9c-14,10.6-54.3,2.5-96.7,11.9
		c-15.6,3.5-26.8,8.3-34.7,13.8l16.6,9.6l23.5,13.6c10.5,7.2,20.1,14.9,28.6,22.8c2.8,2.6,5.6,5.3,8.2,8c2.6,2.7,5.1,5.4,7.5,8.1
		c0.8,0.9,1.6,1.9,2.4,2.8c24.7-9.2,26.8-25.3,26.8-25.3l-11.9-0.3c3.7-1.2,6.9-2.6,9.7-4.1c-2.8,1.5-6,2.9-9.7,4.1
		c0,0-4.1,0.8-12.1,0.3c0,0,31.1-12.1,38.8-33.7L237.1,50.2c10.3-5.9,14.6-13.1,16.2-19.2C251.7,37.1,247.4,44.3,237.1,50.2z"/>
	<path class="st42" d="M161.8,94.9c0,0,11.1,7.1,24.2,18.8c6.6-0.8,12.3-2,17.2-3.4c-14-13.5-29.8-24.1-41.4-31V80V94.9z"/>
	<path class="st42" d="M198.6,97.5c-2.6-2.7-5.3-5.4-8.2-8c-8.5-7.9-18.1-15.6-28.6-22.8v12.5c11.6,6.9,27.4,17.5,41.4,31
		c1.9-0.5,3.6-1.1,5.3-1.7c-0.8-0.9-1.6-1.9-2.4-2.8C203.7,102.9,201.2,100.2,198.6,97.5z"/>
	<path class="st42" d="M161.8,101.4c3.2,4.5,6.3,8.9,9.2,13.3c5.5-0.1,10.5-0.5,15-1C173,102,161.8,94.9,161.8,94.9V101.4z"/>
	<path class="st42" d="M161.8,114.7c3.2,0.1,6.2,0.1,9.2,0c-2.9-4.4-5.9-8.8-9.2-13.3v5V114.7z"/>
	<path class="st42" d="M115.9,104c2.6,4.1,6.9,6.9,11.7,7.6c1.6,0.2,3.2,0.5,4.7,0.7l11.2-17.4c-2.9-2.2-5.5-4.2-7.6-6.1
		c-5.9-5.1-9.6-12.4-9.9-20.2c-0.3-5.9,0.2-10.5,0.2-10.5l12.1-5.1l-16.6-9.6C94.1,62.9,107.7,91.4,115.9,104z"/>
	<polygon class="st42" points="143.6,94.9 132.3,112.3 132.3,112.3 	"/>
	<path class="st42" d="M137.9,113l15.2-11.5c-3.5-2.2-6.7-4.4-9.6-6.5l-11.2,17.4C134.2,112.5,136.1,112.7,137.9,113z"/>
	<path class="st42" d="M153.2,101.4L137.9,113c8.7,1,16.6,1.6,23.9,1.7v-8.3C158.7,104.8,155.9,103.1,153.2,101.4z"/>
	<path class="st42" d="M126,68.6c0.4,7.8,4,15.1,9.9,20.2c2.2,1.8,4.7,3.9,7.6,6.1l3.2-5C129.5,82.8,128.5,76,128.5,76l25.3,3
		l2.1-3.3l5.9-9.1l-23.5-13.6l-12.1,5.1C126.2,58.1,125.7,62.7,126,68.6z"/>
	<path class="st42" d="M158.8,97.2l3-2.3c-2.2-0.6-4.2-1.2-6.1-1.8C156.8,94.5,157.8,95.8,158.8,97.2z"/>
	<path class="st42" d="M153.8,79l8,1v-0.8c-2.1-1.3-4.1-2.4-5.9-3.4L153.8,79z"/>
	<path class="st42" d="M158.8,97.2c-1-1.4-2-2.7-3-4.1c-3.4-1.1-6.3-2.1-8.9-3.2l-3.2,5c2.9,2.1,6.1,4.3,9.6,6.5L158.8,97.2z"/>
	<path class="st42" d="M161.8,79.2V66.7l-5.9,9.1C157.7,76.8,159.7,77.9,161.8,79.2z"/>
	<path class="st42" d="M161.8,101.4v-6.5l-3,2.3C159.8,98.6,160.8,100,161.8,101.4z"/>
	<path class="st42" d="M153.2,101.4c2.7,1.7,5.6,3.4,8.7,5v-5c-1-1.4-2-2.8-3-4.2L153.2,101.4z"/>
	<path class="st42" d="M153.8,79l-25.3-3c0,0,1,6.8,18.3,13.9l3-4.6L153.8,79z"/>
	<path class="st42" d="M155.7,93.1c1.9,0.6,3.9,1.2,6.1,1.8V80l-8-1l-4.1,6.3C151.8,87.9,153.8,90.5,155.7,93.1z"/>
	<path class="st42" d="M149.8,85.3l-3,4.6c2.6,1.1,5.6,2.1,8.9,3.2C153.8,90.5,151.8,87.9,149.8,85.3z"/>
	<path class="st43" d="M211.3,83.1c8,0.5,12.1-0.3,12.1-0.3c3.7-1.2,6.9-2.6,9.7-4.1c0.9-0.5,1.8-1,2.6-1.5c2-1.3,3.7-2.6,5.2-3.9
		c2.5-2.3,4.4-4.6,5.7-6.9c5.2-8.7,3.5-16.8,3.5-16.8C242.4,71,211.3,83.1,211.3,83.1z"/>
	<path class="st43" d="M254,24.5c0-0.7,0-1.3-0.1-1.9c0-0.6-0.1-1.2-0.2-1.7c-0.1-0.5-0.2-1-0.2-1.4c-0.2-1.2-0.5-1.9-0.5-1.9
		c-2.1,20.5-31.5,36.9-31.5,36.9c7.5,0.5,15.6-4.4,15.6-4.4c10.3-5.9,14.6-13.1,16.2-19.2c0.1-0.5,0.2-0.9,0.3-1.4
		c0.2-0.9,0.3-1.8,0.4-2.6c0-0.5,0.1-0.9,0.1-1.3C254,25.2,254,24.9,254,24.5C254,24.5,254,24.5,254,24.5z"/>
</g>
</svg>
